<?xml version="1.0" standalone="no"?>
<!DOCTYPE svg PUBLIC "-//W3C//DTD SVG 20010904//EN"
 "http://www.w3.org/TR/2001/REC-SVG-20010904/DTD/svg10.dtd">
<svg version="1.0" xmlns="http://www.w3.org/2000/svg"
 width="700.000000pt" height="700.000000pt" viewBox="0 0 700.000000 700.000000"
 preserveAspectRatio="xMidYMid meet">
<metadata>
Created by potrace 1.11, written by Peter Selinger 2001-2013
</metadata>
<g transform="translate(0.000000,700.000000) scale(0.100000,-0.100000)"
fill="#000000" stroke="none">
<path d="M1555 6986 c-107 -34 -168 -87 -214 -186 l-26 -55 0 -3245 0 -3245
29 -60 c33 -70 56 -96 111 -135 92 -63 -3 -60 1669 -59 939 0 1540 4 1571 10
71 13 173 54 245 97 67 41 568 532 622 610 44 63 85 158 106 242 19 73 19 167
20 2912 1 3002 2 2870 -43 2958 -38 73 -120 136 -205 158 -69 18 -3830 16
-3885 -2z m3856 -222 c63 -32 59 183 59 -2877 0 -1954 -3 -2811 -11 -2852 -13
-72 -49 -155 -89 -205 -59 -74 -505 -512 -547 -537 -56 -33 -133 -62 -180 -68
-40 -5 -2997 -7 -3023 -2 -8 2 -26 9 -38 16 -55 30 -52 -182 -52 3266 0 2819
2 3190 15 3215 33 64 -112 59 1953 60 1690 0 1886 -2 1913 -16z"/>
<path d="M1831 6227 c-16 -4 -41 -21 -55 -38 l-26 -30 0 -1340 c0 -1486 -5
-1385 65 -1415 51 -21 3319 -21 3370 0 70 29 65 -70 65 1408 0 1038 -3 1338
-13 1357 -6 13 -25 33 -40 45 l-28 20 -1654 1 c-910 0 -1668 -3 -1684 -8z
m3199 -1414 l0 -1203 -1530 0 -1530 0 0 1203 0 1202 1530 0 1530 0 0 -1202z"/>
<path d="M2377 3058 c-60 -8 -111 -40 -148 -91 -31 -43 -38 -69 -41 -167 l-3
-65 -71 -1 c-86 -2 -135 -17 -180 -56 -62 -55 -69 -82 -69 -278 l0 -175 32
-46 c52 -75 100 -96 225 -101 l66 -3 1 -76 c1 -120 36 -184 125 -225 46 -22
64 -24 191 -24 164 1 205 8 254 48 56 45 81 103 84 197 l3 80 67 2 c100 3 143
18 192 68 57 57 66 94 66 270 0 165 -12 207 -73 261 -47 41 -92 55 -178 57
-39 1 -71 4 -71 7 -1 3 -3 36 -5 73 -4 89 -18 131 -61 178 -50 55 -97 70 -239
72 -67 1 -142 -1 -167 -5z m240 -221 c4 -5 8 -61 9 -125 2 -180 18 -196 205
-196 l119 -1 1 -30 c4 -120 3 -168 -2 -177 -4 -6 -57 -11 -127 -12 -105 -1
-125 -4 -149 -22 -40 -29 -49 -69 -48 -194 l1 -110 -108 0 c-59 0 -108 3 -109
8 0 4 -2 59 -3 122 -2 118 -8 141 -46 175 -18 17 -38 20 -148 22 -70 1 -129 2
-132 2 -8 1 -4 201 4 209 4 3 60 7 124 7 180 2 195 18 198 199 1 68 6 121 12
125 14 9 190 7 199 -2z"/>
<path d="M4804 2929 c-149 -57 -238 -230 -198 -382 65 -246 369 -330 548 -151
99 100 125 271 47 317 -73 43 -154 3 -167 -80 -9 -60 -56 -114 -100 -115 -46
-1 -87 23 -107 64 -34 70 10 139 97 152 78 12 119 73 98 145 -21 70 -112 91
-218 50z"/>
<path d="M4300 2395 c-69 -18 -111 -43 -161 -95 -122 -126 -118 -328 8 -453
67 -68 146 -98 244 -93 170 8 304 144 304 307 0 76 -15 101 -70 119 -67 22
-131 -28 -142 -110 -6 -46 -58 -100 -97 -100 -68 0 -116 46 -116 113 0 46 32
84 83 98 102 27 129 52 129 115 0 85 -77 126 -182 99z"/>
<path d="M3240 1413 c-42 -18 -371 -246 -381 -264 -39 -74 16 -164 99 -161 50
2 392 229 418 277 21 40 13 93 -20 124 -24 23 -88 36 -116 24z"/>
<path d="M3845 1310 c-94 -62 -182 -124 -197 -138 -86 -79 0 -222 107 -178 54
23 363 234 380 260 45 68 4 154 -77 163 -42 5 -50 1 -213 -107z"/>
</g>
</svg>
