<?xml version="1.0" ?><svg enable-background="new 0 0 52 52" id="Layer_1" version="1.1" viewBox="0 0 52 52" xml:space="preserve" xmlns="http://www.w3.org/2000/svg" xmlns:xlink="http://www.w3.org/1999/xlink"><g><g><path d="M18.3785954,32.9797325c0.0189419-2.3394756,0.0378857-4.6789532,0.0568275-7.0184307    c0.0102921-1.2711887-0.6821957-5.9627991,0.0568295-7.0184326c0.2633839-0.3762207,4.0723877-0.3548756,5.2591648-0.3785343    c2.3568974-0.0469856,4.717186-0.0254726,7.0744667-0.0326977c1.7258434-0.005291,2.7546291-0.485117,3.4728146,1.8246403    c0.2472,0.7950153-0.0019264,2.1077175-0.0026894,2.9462929c-0.0017319,1.8972931,0.7088852,5.6799088-0.0067253,7.3657341    c-1.6306839,3.8415337-5.0795345,3.3450165-8.4342747,3.4080696c-0.9596691,0.0180359-6.8995152,0.6619263-7.0103931-0.6315269    c-0.1363869-1.5909977-2.6376266-1.6054611-2.5,0c0.2143021,2.4999275,1.7163982,3.0995255,4.0759945,3.2336617    c3.712841,0.2110634,8.4855232,0.3876991,12.1478214-0.2897186c2.4464264-0.4525146,3.8749161-2.039505,4.1818886-4.5100403    c0.2853279-2.2963638,0.0422287-4.7871189,0.044342-7.1030312c0.0016518-1.808485,0.2427406-3.7760963-0.071949-5.567955    c-0.3912468-2.2278023-1.5462723-2.9953918-3.6919975-3.1828861c-4.1952934-0.3665838-8.9374046-0.2274752-13.1259193,0.2662506    c-1.9932995,0.2349625-3.4657993,0.2880268-3.8885746,2.3953819c-0.3988867,1.9882774-0.0587301,4.549202-0.0751162,6.5729485    c-0.0208368,2.5734253-0.0416746,5.1468506-0.0625114,7.720274    C15.8655653,34.5888214,18.3655529,34.5903587,18.3785954,32.9797325L18.3785954,32.9797325z" fill="#231F20"/></g><g><path d="M11.2501593,11.8753748c9.8130922-0.0000563,19.6261826-0.0001125,29.4392738-0.0001698    c-0.4166679-0.416666-0.8333321-0.833333-1.25-1.25c0.051548,10.0619268,0.1030998,20.1238518,0.1546478,30.1857796    c0.4166679-0.4166679,0.8333321-0.8333321,1.25-1.25c-9.8894634,0.0787506-19.7788181,0.0946312-29.6684837,0.0476532    c0.416666,0.4166641,0.833333,0.8333321,1.25,1.25c-0.1729383-9.9106903-0.2244883-19.821228-0.1546574-29.733181    c0.0113354-1.6090384-2.4886522-1.6107244-2.5,0c-0.0698309,9.911953-0.018281,19.8224907,0.1546574,29.733181    c0.0118303,0.67799,0.5631542,1.2467346,1.25,1.25c9.8896656,0.046978,19.7790203,0.0310974,29.6684837-0.0476532    c0.673111-0.0053596,1.2534904-0.5683365,1.25-1.25c-0.051548-10.0619278-0.1030998-20.1238537-0.1546478-30.1857796    c-0.0034599-0.6756992-0.5699005-1.2500038-1.25-1.25c-9.8130913,0.0000572-19.6261826,0.0001135-29.4392738,0.0001698    C9.6415291,9.3753843,9.6388636,11.8753843,11.2501593,11.8753748L11.2501593,11.8753748z" fill="#231F20"/></g><g><path d="M12.0958128,4.3741112c0.1312714,1.4145207,0.2095852,2.8308859,0.2350626,4.2512455    c0.0288219,1.6068707,2.5289145,1.6120243,2.5,0c-0.0254774-1.4203701-0.1037922-2.8367348-0.2350626-4.2512455    C14.4483929,2.7855935,11.9469624,2.770174,12.0958128,4.3741112L12.0958128,4.3741112z" fill="#231F20"/></g><g><path d="M17.0384007,3.9569976c0.0729141,1.6948926,0.1458263,3.3897855,0.2187405,5.0846777    c0.0689468,1.6026831,2.5693169,1.6113062,2.5,0c-0.0729141-1.6948924-0.1458263-3.3897853-0.2187405-5.0846777    C19.4694538,2.3543148,16.9690838,2.3456919,17.0384007,3.9569976L17.0384007,3.9569976z" fill="#231F20"/></g><g><path d="M22.4165154,4.1253228c0,1.8611112,0,3.7222223,0,5.5833335c0,1.6086302,2.5,1.6112947,2.5,0    c0-1.8611112,0-3.7222223,0-5.5833335C24.9165154,2.5166922,22.4165154,2.5140276,22.4165154,4.1253228L22.4165154,4.1253228z" fill="#231F20"/></g><g><path d="M27.6665154,3.7919896c0,1.8888886,0,3.7777779,0,5.666667c0,1.6086302,2.5,1.6112947,2.5,0    c0-1.8888888,0-3.7777781,0-5.666667C30.1665154,2.1833589,27.6665154,2.1806943,27.6665154,3.7919896L27.6665154,3.7919896z" fill="#231F20"/></g><g><path d="M32.2596703,4.2090311c-0.0491714,1.4462242-0.0262604,2.8893728,0.0687904,4.3332891    c0.1051369,1.597147,2.6059113,1.608902,2.5,0c-0.0950546-1.4439349-0.1179619-2.887084-0.0687904-4.3332891    C34.8143806,2.5999038,32.3143082,2.6019588,32.2596703,4.2090311L32.2596703,4.2090311z" fill="#231F20"/></g><g><path d="M37.2498512,3.8753228c0,2.1111112,0,4.2222219,0,6.3333335c0,1.6086302,2.5,1.6112947,2.5,0    c0-2.1111116,0-4.2222223,0-6.3333335C39.7498512,2.2666922,37.2498512,2.2640276,37.2498512,3.8753228L37.2498512,3.8753228z" fill="#231F20"/></g><g><path d="M47.8331833,11.7086563c-2.2222214,0-4.4444466,0-6.6666679,0c-1.6086311,0-1.6112938,2.5,0,2.5    c2.2222214,0,4.4444466,0,6.6666679,0C49.4418144,14.2086563,49.4444771,11.7086563,47.8331833,11.7086563L47.8331833,11.7086563z    " fill="#231F20"/></g><g><path d="M47.3331833,16.8753223c-2,0-4,0-6,0c-1.6086311,0-1.6112938,2.5,0,2.5c2,0,4,0,6,0    C48.9418144,19.3753223,48.9444771,16.8753223,47.3331833,16.8753223L47.3331833,16.8753223z" fill="#231F20"/></g><g><path d="M47.9998512,22.1253223c-2.2222252,0-4.4444466,0-6.6666679,0c-1.6086311,0-1.6112938,2.5,0,2.5    c2.2222214,0,4.4444427,0,6.6666679,0C49.6084785,24.6253223,49.611145,22.1253223,47.9998512,22.1253223L47.9998512,22.1253223z" fill="#231F20"/></g><g><path d="M47.5841827,26.983429c-2.3058586-0.0367756-4.6115723-0.0428753-6.9175911-0.0183029    c-1.607708,0.0171318-1.6118546,2.5171757,0,2.5c2.3060226-0.0245724,4.6117325-0.0184727,6.9175911,0.0183029    C49.1935081,29.5090942,49.1939583,27.0091019,47.5841827,26.983429L47.5841827,26.983429z" fill="#231F20"/></g><g><path d="M47.1665154,31.2919903c-2.6111107,0-5.2222214,0-7.8333321,0    c-1.6086311,0-1.6112938,2.4999981,0,2.4999981c2.6111107,0,5.2222214,0,7.8333321,0    C48.7751465,33.7919884,48.777813,31.2919903,47.1665154,31.2919903L47.1665154,31.2919903z" fill="#231F20"/></g><g><path d="M47.6665154,36.6253242c-2.3333321,0-4.6666641,0-7,0c-1.6086311,0-1.6112938,2.5,0,2.5    c2.3333359,0,4.6666679,0,7,0C49.2751465,39.1253242,49.277813,36.6253242,47.6665154,36.6253242L47.6665154,36.6253242z" fill="#231F20"/></g><g><path d="M39.9831009,47.5422974c-0.034668-1.8892746-0.0693398-3.7785454-0.1040115-5.6678162    c-0.0294838-1.6068192-2.529583-1.61203-2.5,0c0.0346718,1.8892708,0.0693436,3.7785416,0.1040115,5.6678162    C37.5125885,49.1491127,40.0126839,49.1543274,39.9831009,47.5422974L39.9831009,47.5422974z" fill="#231F20"/></g><g><path d="M34.9165154,47.9586563c0-1.9166679,0-3.8333321,0-5.75c0-1.6086311-2.5-1.6112938-2.5,0    c0,1.9166679,0,3.8333321,0,5.75C32.4165154,49.5672874,34.9165154,49.5699501,34.9165154,47.9586563L34.9165154,47.9586563z" fill="#231F20"/></g><g><path d="M30.1665154,47.7919884c0-1.9166641,0-3.8333321,0-5.75c0-1.6086311-2.5-1.6112938-2.5,0    c0,1.9166679,0,3.8333359,0,5.75C27.6665154,49.4006195,30.1665154,49.403286,30.1665154,47.7919884L30.1665154,47.7919884z" fill="#231F20"/></g><g><path d="M24.6955719,48.4697609c0.3099842-2.0013084,0.420805-3.9865227,0.2710266-6.0083237    c-0.1181431-1.5947418-2.6190968-1.6076241-2.5,0c0.1323662,1.7867661,0.0927925,3.5713959-0.1817245,5.3437233    C22.0410862,49.3790855,24.4496727,50.0573158,24.6955719,48.4697609L24.6955719,48.4697609z" fill="#231F20"/></g><g><path d="M19.6692581,45.8756332c0.1372967-1.3597717,0.1912479-2.7173157,0.1623077-4.0835724    c-0.0340176-1.606102-2.5006084-1.6132126-2.5,0c0.0007668,2.0277519,0.0015316,4.0555077,0.0022984,6.0832596    c0.0006065,1.6086044,2.5006084,1.6113243,2.5,0c-0.0007668-2.0277519-0.0015316-4.0555077-0.0022984-6.0832596    c-0.8333321,0-1.666666,0-2.5,0c0.0289421,1.3663826-0.0250225,2.7239227-0.1623077,4.0835724    C17.0077724,47.4749603,19.5089073,47.4637146,19.6692581,45.8756332L19.6692581,45.8756332z" fill="#231F20"/></g><g><path d="M15.1587315,48.2084999c0.0385017-1.9164505,0.0770035-3.832901,0.1155052-5.7493553    c0.0323324-1.6093712-2.4676704-1.6092453-2.5,0c-0.0385017,1.9164543-0.0770035,3.8329048-0.1155052,5.7493553    C12.626399,49.8178749,15.1264009,49.817749,15.1587315,48.2084999L15.1587315,48.2084999z" fill="#231F20"/></g><g><path d="M4.5849233,39.56987c2.1751509-0.1209068,4.3384814-0.0645332,6.5043101,0.1694832    c1.5974693,0.1726036,1.5852718-2.3287125,0-2.5c-2.1659021-0.234024-4.3292336-0.2903862-6.5043101-0.1694832    C2.9850881,37.1587944,2.9747362,39.6593704,4.5849233,39.56987L4.5849233,39.56987z" fill="#231F20"/></g><g><path d="M4.0000505,34.1864624c2.2778425,0.0206337,4.555685,0.0412674,6.8335276,0.0619011    c1.6091261,0.014576,1.6105328-2.4854107,0-2.5c-2.2778425-0.0206337-4.555685-0.0412674-6.8335276-0.061903    C2.390924,31.6718845,2.3895175,34.1718712,4.0000505,34.1864624L4.0000505,34.1864624z" fill="#231F20"/></g><g><path d="M5.1665163,29.4586563c1.583333,0,3.166666,0,4.75,0c1.6086302,0,1.6112947-2.5,0-2.5    c-1.583334,0-3.166667,0-4.75,0C3.5578854,26.9586563,3.5552211,29.4586563,5.1665163,29.4586563L5.1665163,29.4586563z" fill="#231F20"/></g><g><path d="M4.5831828,24.3753223c1.7222223,0,3.4444442,0,5.1666665,0c1.6086311,0,1.6112957-2.5,0-2.5    c-1.7222223,0-3.4444442,0-5.1666665,0C2.9745522,21.8753223,2.9718876,24.3753223,4.5831828,24.3753223L4.5831828,24.3753223z" fill="#231F20"/></g><g><path d="M4.5831828,19.5419903c1.75,0,3.4999995,0,5.2499995,0c1.6086311,0,1.6112957-2.5,0-2.5    c-1.75,0-3.4999995,0-5.2499995,0C2.9745522,17.0419903,2.9718876,19.5419903,4.5831828,19.5419903L4.5831828,19.5419903z" fill="#231F20"/></g><g><path d="M4.3331828,14.2919893c1.8611112,0,3.7222219,0,5.5833335,0c1.6086302,0,1.6112947-2.5,0-2.5    c-1.8611116,0-3.7222223,0-5.5833335,0C2.7245522,11.7919893,2.7218876,14.2919893,4.3331828,14.2919893L4.3331828,14.2919893z" fill="#231F20"/></g></g></svg>