<?xml version="1.0" ?><svg id="Layer_1" style="enable-background:new 0 0 96 96;" version="1.1" viewBox="0 0 96 96" xml:space="preserve" xmlns="http://www.w3.org/2000/svg" xmlns:xlink="http://www.w3.org/1999/xlink"><style type="text/css">
	.st0{fill:none;stroke:#000000;stroke-width:4;stroke-miterlimit:10;}
</style><g><path d="M87,9v67.4L48.8,86.6c-0.1,0-0.4,0.1-0.8,0.1s-0.8,0-0.8-0.1L9,76.4V9h36.6h4.9H87 M90.6,3H50.4c-1.3,0-3.6,0-4.9,0H5.4   C4.1,3,3,4.1,3,5.4v73.1c0,1.3,1.1,2.7,2.4,3.1l40.3,10.7c0.7,0.2,1.5,0.3,2.4,0.3s1.7-0.1,2.4-0.3l40.3-10.7   c1.3-0.3,2.4-1.7,2.4-3.1V5.4C93,4.1,91.9,3,90.6,3L90.6,3z"/></g><line class="st0" x1="3" x2="93" y1="18" y2="18"/><g><path class="st0" d="M4,70l41.4,11.3c1.4,0.4,3.7,0.4,5.1,0L92,70"/></g><g><path d="M14.5,56.7c0-1.9,1.3-3.4,3.1-3.4s3.1,1.4,3.1,3.4c0,1.9-1.3,3.3-3.1,3.3S14.5,58.6,14.5,56.7z"/><path d="M24.6,36H30l6,11.7l2.3,5.2h0.1c-0.2-2.5-0.6-5.8-0.6-8.6V36h5v23.6h-5.3l-6-11.7l-2.3-5.1h-0.1c0.2,2.6,0.6,5.7,0.6,8.5   v8.3h-5V36z"/><path d="M47.1,36h14.4v4.5h-9.2v4.7h7.9v4.4h-7.9v5.4h9.6v4.5H47.1V36z"/><path d="M69.9,40.5h-6.3V36h17.9v4.5h-6.3v19.1h-5.2V40.5z"/></g></svg>