<svg width="390" height="303" xmlns="http://www.w3.org/2000/svg">
 <defs>
  <linearGradient y2="1.093781" x2="0.71475" y1="-0.143854" x1="0.267139" id="SVGID_29_">
   <stop stop-color="#7C7F81" offset="0"/>
   <stop stop-color="#7C7E81" offset="0.0152"/>
   <stop stop-color="#676B7C" offset="0.625"/>
   <stop stop-color="#60657A" offset="1"/>
  </linearGradient>
  <linearGradient y2="0.953308" x2="0.711313" y1="0.046724" x1="0.288559" id="SVGID_31_">
   <stop stop-color="#EF4237" offset="0"/>
   <stop stop-color="#CD3634" offset="1"/>
  </linearGradient>
  <linearGradient y2="1.068437" x2="0.705122" y1="-0.010361" x1="0.315831" id="SVGID_32_">
   <stop stop-color="#8A8A8A" offset="0"/>
   <stop stop-color="#404040" offset="1"/>
  </linearGradient>
 </defs>
 <g>
  <title>background</title>
  <rect fill="none" id="canvas_background" height="305" width="392" y="-1" x="-1"/>
 </g>
 <g>
  <title>Layer 1</title>
  <g id="svg_192">
   <path id="svg_94" d="m376.667,2.499996l-362.667,0c-6.341,0 -11.5,5.159 -11.5,11.5l0,275c0,6.341 5.159,11.5 11.5,11.5l312,0c0.267,-0.001 27.245,-0.614 44.566,-17.935c15.886,-15.886 17.601,-36.458 17.601,-44.565l0,-224c0,-6.341 -5.16,-11.5 -11.5,-11.5z" fill="none"/>
   <path id="svg_55" d="m372.334,284.333c16.734,-16.734 18.333,-38.188 18.333,-46.333s0,-224 0,-224c0,-7.732 -6.268,-14 -14,-14l-362.667,0c-7.732,0 -14,6.268 -14,14l0,275c0,7.732 6.268,14 14,14c0,0 307.875,0 312,0s29.599,-1.932 46.334,-18.667z" fill="url(#SVGID_29_)"/>
   <polygon id="svg_58" points="372.33401465415955,14.00100326538086 327.66702246665955,14.00100326538086 327.66702246665955,12.00100326538086 372.33401465415955,12.00100326538086 372.33401465415955,14.00100326538086 " fill="#9E2064"/>
   <polygon id="svg_59" points="117.66701483726501,14.00100326538086 16.332996129989624,14.00100326538086 16.332996129989624,12.00100326538086 117.66701483726501,12.00100326538086 117.66701483726501,14.00100326538086 " fill="#9E2064"/>
   <path id="svg_60" d="m372.334,22.001l-44.667,0c-0.553,0 -1,-0.448 -1,-1s0.447,-1 1,-1l44.667,0c0.553,0 1,0.448 1,1s-0.448,1 -1,1l0,0z" fill="#282561"/>
   <path id="svg_61" d="m117.667,22.001l-101.333,0c-0.552,0 -1,-0.448 -1,-1s0.448,-1 1,-1l101.333,0c0.552,0 1,0.448 1,1s-0.448,1 -1,1l0,0z" fill="#282561"/>
   <path id="svg_62" d="m127.104,19.335l0,-7.441l1.661,0c0.796,0 1.426,0.074 1.887,0.222c0.496,0.145 0.945,0.39 1.349,0.737c0.817,0.7 1.226,1.621 1.226,2.761c0,1.144 -0.426,2.069 -1.277,2.776c-0.427,0.354 -0.875,0.6 -1.343,0.738c-0.438,0.138 -1.058,0.207 -1.861,0.207l-1.642,0zm1.194,-1.056l0.539,0c0.536,0 0.982,-0.053 1.338,-0.159c0.355,-0.112 0.677,-0.291 0.964,-0.535c0.588,-0.504 0.882,-1.161 0.882,-1.971c0,-0.816 -0.291,-1.478 -0.872,-1.985c-0.523,-0.453 -1.294,-0.68 -2.312,-0.68l-0.539,0l0,5.33z" fill="#A8AAAD"/>
   <path id="svg_63" d="m134.921,15.58c0,-1.047 0.408,-1.947 1.226,-2.699c0.813,-0.752 1.791,-1.128 2.933,-1.128c1.128,0 2.095,0.379 2.901,1.138c0.811,0.758 1.215,1.669 1.215,2.732c0,1.07 -0.407,1.978 -1.22,2.723c-0.817,0.749 -1.803,1.123 -2.958,1.123c-1.022,0 -1.94,-0.333 -2.753,-0.998c-0.897,-0.735 -1.344,-1.698 -1.344,-2.891zm1.205,0.012c0,0.822 0.293,1.498 0.882,2.027c0.584,0.529 1.259,0.794 2.025,0.794c0.831,0 1.531,-0.27 2.102,-0.809c0.571,-0.545 0.856,-1.21 0.856,-1.994c0,-0.792 -0.282,-1.457 -0.846,-1.993c-0.561,-0.54 -1.254,-0.809 -2.082,-0.809c-0.824,0 -1.52,0.27 -2.087,0.809c-0.567,0.534 -0.85,1.192 -0.85,1.975z" fill="#A8AAAD"/>
   <path id="svg_64" d="m147.188,12.949l0,6.386l-1.195,0l0,-6.386l-1.82,0l0,-1.055l4.829,0l0,1.055l-1.814,0z" fill="#A8AAAD"/>
   <path id="svg_65" d="m154.209,19.335l1.666,-8l2.717,5.783l2.815,-5.783l1.497,8l-1.226,0l-0.764,-4.492l-2.343,4.834l-2.276,-4.839l-0.851,4.497l-1.235,0z" fill="#A8AAAD"/>
   <path id="svg_66" d="m169.819,17.528l-3.389,0l-0.882,1.807l-1.287,0l3.917,-7.909l3.778,7.909l-1.307,0l-0.83,-1.807zm-0.488,-1.056l-1.174,-2.53l-1.23,2.53l2.404,0z" fill="#A8AAAD"/>
   <path id="svg_67" d="m175.278,12.949l0,6.386l-1.195,0l0,-6.386l-1.82,0l0,-1.055l4.829,0l0,1.055l-1.814,0z" fill="#A8AAAD"/>
   <path id="svg_68" d="m181.428,16.164l2.451,3.171l-1.461,0l-2.261,-3.046l-0.215,0l0,3.046l-1.195,0l0,-7.441l1.4,0c1.046,0 1.801,0.185 2.266,0.554c0.513,0.411 0.769,0.954 0.769,1.629c0,0.527 -0.161,0.98 -0.482,1.359c-0.321,0.379 -0.745,0.621 -1.272,0.728zm-1.486,-0.853l0.379,0c1.131,0 1.697,-0.407 1.697,-1.22c0,-0.761 -0.551,-1.142 -1.651,-1.142l-0.425,0l0,2.362z" fill="#A8AAAD"/>
   <path id="svg_69" d="m186.851,11.894l0,7.441l-1.195,0l0,-7.441l1.195,0z" fill="#A8AAAD"/>
   <path id="svg_70" d="m190.997,15.445l-2.179,-3.552l1.358,0l1.513,2.521l1.589,-2.521l1.369,0l-2.281,3.552l2.394,3.889l-1.338,0l-1.753,-2.848l-1.805,2.848l-1.354,0l2.487,-3.889z" fill="#A8AAAD"/>
   <path id="svg_71" d="m200.632,11.894l2.062,4.974l2.153,-5.335l2.061,5.335l2.189,-4.974l1.297,0l-3.537,7.913l-2.036,-5.272l-2.122,5.277l-3.363,-7.918l1.296,0z" fill="#A8AAAD"/>
   <path id="svg_72" d="m213.161,11.894l0,7.441l-1.194,0l0,-7.441l1.194,0z" fill="#A8AAAD"/>
   <path id="svg_73" d="m217.836,12.949l0,6.386l-1.195,0l0,-6.386l-1.82,0l0,-1.055l4.83,0l0,1.055l-1.815,0z" fill="#A8AAAD"/>
   <path id="svg_74" d="m222.499,14.804l3.415,0l0,-2.911l1.193,0l0,7.441l-1.193,0l0,-3.475l-3.415,0l0,3.475l-1.194,0l0,-7.441l1.194,0l0,2.911z" fill="#A8AAAD"/>
   <path id="svg_75" d="m237.896,12.997l-0.969,0.54c-0.182,-0.295 -0.354,-0.488 -0.518,-0.578c-0.171,-0.103 -0.392,-0.154 -0.661,-0.154c-0.332,0 -0.606,0.088 -0.825,0.265c-0.219,0.174 -0.328,0.393 -0.328,0.656c0,0.363 0.287,0.656 0.861,0.877l0.789,0.304c0.643,0.244 1.112,0.542 1.41,0.895c0.297,0.352 0.445,0.784 0.445,1.295c0,0.685 -0.242,1.25 -0.728,1.698c-0.489,0.45 -1.096,0.675 -1.82,0.675c-0.687,0 -1.255,-0.192 -1.702,-0.576c-0.44,-0.383 -0.716,-0.922 -0.825,-1.616l1.21,-0.251c0.055,0.437 0.15,0.739 0.287,0.906c0.246,0.321 0.605,0.482 1.076,0.482c0.373,0 0.683,-0.117 0.929,-0.352s0.369,-0.531 0.369,-0.891c0,-0.145 -0.021,-0.277 -0.064,-0.397c-0.042,-0.121 -0.109,-0.231 -0.2,-0.333c-0.09,-0.101 -0.207,-0.196 -0.351,-0.284s-0.315,-0.172 -0.513,-0.253l-0.764,-0.298c-1.084,-0.43 -1.626,-1.06 -1.626,-1.888c0,-0.559 0.228,-1.026 0.683,-1.401c0.454,-0.379 1.02,-0.568 1.696,-0.568c0.915,-0.001 1.627,0.415 2.139,1.247z" fill="#A8AAAD"/>
   <path id="svg_76" d="m242.464,12.949l0,6.386l-1.194,0l0,-6.386l-1.82,0l0,-1.055l4.829,0l0,1.055l-1.815,0z" fill="#A8AAAD"/>
   <path id="svg_77" d="m250.3,12.949l-3.174,0l0,1.788l3.082,0l0,1.056l-3.082,0l0,2.486l3.174,0l0,1.056l-4.368,0l0,-7.441l4.368,0l0,1.055z" fill="#A8AAAD"/>
   <path id="svg_78" d="m255.138,16.164l2.451,3.171l-1.461,0l-2.262,-3.046l-0.215,0l0,3.046l-1.195,0l0,-7.441l1.4,0c1.046,0 1.801,0.185 2.266,0.554c0.514,0.411 0.77,0.954 0.77,1.629c0,0.527 -0.16,0.98 -0.482,1.359c-0.32,0.379 -0.744,0.621 -1.272,0.728zm-1.486,-0.853l0.379,0c1.132,0 1.697,-0.407 1.697,-1.22c0,-0.761 -0.551,-1.142 -1.65,-1.142l-0.426,0l0,2.362z" fill="#A8AAAD"/>
   <path id="svg_79" d="m263.735,12.949l-3.173,0l0,1.788l3.081,0l0,1.056l-3.081,0l0,2.486l3.173,0l0,1.056l-4.368,0l0,-7.441l4.368,0l0,1.055z" fill="#A8AAAD"/>
   <path id="svg_80" d="m265.498,15.58c0,-1.047 0.408,-1.947 1.226,-2.699c0.813,-0.752 1.79,-1.128 2.933,-1.128c1.128,0 2.095,0.379 2.901,1.138c0.811,0.758 1.216,1.669 1.216,2.732c0,1.07 -0.407,1.978 -1.221,2.723c-0.816,0.749 -1.803,1.123 -2.958,1.123c-1.022,0 -1.94,-0.333 -2.753,-0.998c-0.897,-0.735 -1.344,-1.698 -1.344,-2.891zm1.205,0.012c0,0.822 0.293,1.498 0.882,2.027c0.584,0.529 1.259,0.794 2.024,0.794c0.831,0 1.531,-0.27 2.103,-0.809c0.571,-0.545 0.856,-1.21 0.856,-1.994c0,-0.792 -0.282,-1.457 -0.846,-1.993c-0.561,-0.54 -1.255,-0.809 -2.082,-0.809c-0.824,0 -1.52,0.27 -2.087,0.809c-0.567,0.534 -0.85,1.192 -0.85,1.975z" fill="#A8AAAD"/>
   <path id="svg_81" d="m284.167,12.997l-0.97,0.54c-0.181,-0.295 -0.354,-0.488 -0.518,-0.578c-0.17,-0.103 -0.391,-0.154 -0.66,-0.154c-0.332,0 -0.607,0.088 -0.826,0.265c-0.219,0.174 -0.328,0.393 -0.328,0.656c0,0.363 0.287,0.656 0.861,0.877l0.789,0.304c0.643,0.244 1.113,0.542 1.41,0.895s0.446,0.784 0.446,1.295c0,0.685 -0.243,1.25 -0.728,1.698c-0.489,0.45 -1.096,0.675 -1.82,0.675c-0.688,0 -1.255,-0.192 -1.703,-0.576c-0.439,-0.383 -0.715,-0.922 -0.824,-1.616l1.209,-0.251c0.055,0.437 0.15,0.739 0.287,0.906c0.246,0.321 0.605,0.482 1.077,0.482c0.372,0 0.683,-0.117 0.929,-0.352s0.369,-0.531 0.369,-0.891c0,-0.145 -0.021,-0.277 -0.064,-0.397c-0.043,-0.121 -0.109,-0.231 -0.2,-0.333s-0.208,-0.196 -0.351,-0.284c-0.145,-0.088 -0.315,-0.172 -0.514,-0.253l-0.764,-0.298c-1.084,-0.43 -1.625,-1.06 -1.625,-1.888c0,-0.559 0.227,-1.026 0.682,-1.401c0.455,-0.379 1.02,-0.568 1.697,-0.568c0.913,-0.001 1.626,0.415 2.139,1.247z" fill="#A8AAAD"/>
   <path id="svg_82" d="m286.006,15.58c0,-1.047 0.408,-1.947 1.226,-2.699c0.813,-0.752 1.79,-1.128 2.933,-1.128c1.128,0 2.095,0.379 2.901,1.138c0.811,0.758 1.215,1.669 1.215,2.732c0,1.07 -0.406,1.978 -1.22,2.723c-0.816,0.749 -1.803,1.123 -2.958,1.123c-1.022,0 -1.94,-0.333 -2.753,-0.998c-0.897,-0.735 -1.344,-1.698 -1.344,-2.891zm1.205,0.012c0,0.822 0.293,1.498 0.882,2.027c0.584,0.529 1.259,0.794 2.024,0.794c0.831,0 1.531,-0.27 2.103,-0.809c0.57,-0.545 0.856,-1.21 0.856,-1.994c0,-0.792 -0.282,-1.457 -0.846,-1.993c-0.561,-0.54 -1.255,-0.809 -2.082,-0.809c-0.824,0 -1.52,0.27 -2.087,0.809c-0.567,0.534 -0.85,1.192 -0.85,1.975z" fill="#A8AAAD"/>
   <path id="svg_83" d="m297.565,11.894l0,4.479c0,0.639 0.111,1.106 0.334,1.401c0.331,0.427 0.798,0.641 1.399,0.641c0.604,0 1.073,-0.213 1.405,-0.641c0.222,-0.286 0.333,-0.753 0.333,-1.401l0,-4.479l1.194,0l0,4.791c0,0.784 -0.26,1.43 -0.779,1.937c-0.584,0.565 -1.303,0.848 -2.153,0.848s-1.567,-0.283 -2.148,-0.848c-0.52,-0.507 -0.779,-1.153 -0.779,-1.937l0,-4.791l1.194,0z" fill="#A8AAAD"/>
   <path id="svg_84" d="m304.715,19.335l0,-7.947l5.773,5.677l0,-5.171l1.194,0l0,7.894l-5.773,-5.663l0,5.209l-1.194,0l0,0.001z" fill="#A8AAAD"/>
   <path id="svg_85" d="m314.168,19.335l0,-7.441l1.661,0c0.797,0 1.426,0.074 1.887,0.222c0.496,0.145 0.945,0.39 1.349,0.737c0.816,0.7 1.226,1.621 1.226,2.761c0,1.144 -0.426,2.069 -1.277,2.776c-0.427,0.354 -0.875,0.6 -1.343,0.738c-0.438,0.138 -1.058,0.207 -1.861,0.207l-1.642,0zm1.194,-1.056l0.539,0c0.536,0 0.982,-0.053 1.338,-0.159c0.355,-0.112 0.677,-0.291 0.964,-0.535c0.588,-0.504 0.882,-1.161 0.882,-1.971c0,-0.816 -0.291,-1.478 -0.871,-1.985c-0.523,-0.453 -1.294,-0.68 -2.312,-0.68l-0.539,0l0,5.33l-0.001,0z" fill="#A8AAAD"/>
   <circle id="svg_86" r="6.333" cy="118.34" cx="27.334" fill="url(#SVGID_31_)"/>
   <path id="svg_87" d="m11.967,141.334l0,-7.441l1.189,0c0.53,0 0.952,0.039 1.267,0.116c0.318,0.077 0.586,0.207 0.805,0.39c0.222,0.189 0.398,0.426 0.528,0.708c0.133,0.286 0.2,0.575 0.2,0.868c0,0.533 -0.217,0.984 -0.651,1.354c0.42,0.135 0.752,0.371 0.995,0.708c0.246,0.334 0.369,0.723 0.369,1.166c0,0.582 -0.219,1.073 -0.656,1.475c-0.263,0.247 -0.559,0.419 -0.887,0.516c-0.358,0.093 -0.808,0.14 -1.348,0.14l-1.811,0zm1.195,-4.245l0.375,0c0.444,0 0.77,-0.093 0.977,-0.277c0.207,-0.185 0.31,-0.457 0.31,-0.817c0,-0.35 -0.106,-0.616 -0.318,-0.797c-0.212,-0.182 -0.52,-0.272 -0.923,-0.272l-0.42,0l0,2.163l-0.001,0zm0,3.189l0.738,0c0.54,0 0.937,-0.099 1.189,-0.298c0.267,-0.215 0.4,-0.489 0.4,-0.819c0,-0.321 -0.128,-0.591 -0.385,-0.81c-0.25,-0.215 -0.695,-0.323 -1.338,-0.323l-0.605,0l0,2.25l0.001,0z" fill="#A8AAAD"/>
   <path id="svg_88" d="m23.296,139.527l-3.389,0l-0.882,1.807l-1.287,0l3.917,-7.909l3.778,7.909l-1.307,0l-0.83,-1.807zm-0.488,-1.056l-1.174,-2.53l-1.23,2.53l2.404,0z" fill="#A8AAAD"/>
   <path id="svg_89" d="m28.755,134.948l0,6.386l-1.195,0l0,-6.386l-1.82,0l0,-1.055l4.829,0l0,1.055l-1.814,0z" fill="#A8AAAD"/>
   <path id="svg_90" d="m34.408,134.948l0,6.386l-1.195,0l0,-6.386l-1.82,0l0,-1.055l4.829,0l0,1.055l-1.814,0z" fill="#A8AAAD"/>
   <path id="svg_91" d="m42.245,134.948l-3.173,0l0,1.788l3.082,0l0,1.056l-3.082,0l0,2.486l3.173,0l0,1.056l-4.368,0l0,-7.441l4.368,0l0,1.055z" fill="#A8AAAD"/>
   <path id="svg_92" d="m47.083,138.163l2.451,3.171l-1.461,0l-2.261,-3.046l-0.215,0l0,3.046l-1.195,0l0,-7.441l1.4,0c1.046,0 1.801,0.185 2.266,0.554c0.513,0.411 0.769,0.954 0.769,1.629c0,0.527 -0.161,0.98 -0.482,1.359c-0.322,0.38 -0.745,0.622 -1.272,0.728zm-1.487,-0.853l0.379,0c1.131,0 1.697,-0.407 1.697,-1.22c0,-0.761 -0.551,-1.142 -1.651,-1.142l-0.425,0l0,2.362z" fill="#A8AAAD"/>
   <path id="svg_93" d="m52.563,138.12l-2.584,-4.227l1.374,0l1.81,2.974l1.815,-2.974l1.374,0l-2.594,4.227l0,3.214l-1.195,0l0,-3.214z" fill="#A8AAAD"/>
   <path id="svg_95" d="m326,301.5l-312,0c-6.893,0 -12.5,-5.607 -12.5,-12.5l0,-275c0,-6.893 5.607,-12.5 12.5,-12.5l362.667,0c6.893,0 12.5,5.607 12.5,12.5l0,224c0,8.232 -1.743,29.122 -17.894,45.272c-17.732,17.732 -45.003,18.228 -45.273,18.228l0,0zm-312,-298.5c-6.065,0 -11,4.935 -11,11l0,275c0,6.065 4.935,11 11,11l312,0c0.264,-0.002 27.164,-0.74 44.213,-17.788c15.753,-15.754 17.454,-36.167 17.454,-44.212l0,-224c0,-6.065 -4.935,-11 -11,-11l-362.667,0l0,0z" fill="url(#SVGID_32_)"/>
  </g>
 </g>
</svg>