<?xml version="1.0" encoding="utf-8"?>
<!-- Generator: Adobe Illustrator 14.0.0, SVG Export Plug-In . SVG Version: 6.00 Build 43363)  -->
<!DOCTYPE svg PUBLIC "-//W3C//DTD SVG 1.1//EN" "http://www.w3.org/Graphics/SVG/1.1/DTD/svg11.dtd">
<svg version="1.1" id="Layer_2" xmlns="http://www.w3.org/2000/svg" xmlns:xlink="http://www.w3.org/1999/xlink" x="0px" y="0px"
	 width="800px" height="1000px" viewBox="0 0 800 1000" enable-background="new 0 0 800 1000" xml:space="preserve">
<g>
	<path fill="#BDBEC0" d="M238.072,114.09c-1.482-4.188-5.466-7.193-10.162-7.193c-4.695,0-8.679,3.005-10.161,7.193H238.072z"/>
	<linearGradient id="SVGID_2_" gradientUnits="userSpaceOnUse" x1="350.8608" y1="44.4023" x2="443.1361" y2="242.2872">
		<stop  offset="0" style="stop-color:#E0E0E0"/>
		<stop  offset="0.0562" style="stop-color:#DEDEDE"/>
		<stop  offset="0.384" style="stop-color:#D4D4D4"/>
		<stop  offset="0.8098" style="stop-color:#D1D1D1"/>
	</linearGradient>
	<polygon fill="url(#SVGID_2_)" points="597.41,113.16 590.41,113.16 210.41,113.16 203.41,113.16 171.91,145.66 171.91,155.66 
		628.91,155.66 628.91,145.66 	"/>
	<linearGradient id="SVGID_3_" gradientUnits="userSpaceOnUse" x1="188.2261" y1="131.769" x2="547.3458" y2="901.9039">
		<stop  offset="0" style="stop-color:#E0E0E0"/>
		<stop  offset="1" style="stop-color:#CCCCCC"/>
	</linearGradient>
	<path fill="url(#SVGID_3_)" d="M203.41,111.16h-13.5c-11.046,0-20,8.954-20,20v14.5h33.5V111.16z"/>
	<linearGradient id="SVGID_4_" gradientUnits="userSpaceOnUse" x1="540.7046" y1="-21.3389" x2="902.0986" y2="753.6732">
		<stop  offset="0" style="stop-color:#E0E0E0"/>
		<stop  offset="1" style="stop-color:#CCCCCC"/>
	</linearGradient>
	<path fill="url(#SVGID_4_)" d="M610.91,111.16h-13.5v34.5h33.5v-14.5C630.91,120.114,621.956,111.16,610.91,111.16z"/>
	<linearGradient id="SVGID_5_" gradientUnits="userSpaceOnUse" x1="364.3579" y1="51.0957" x2="742.2272" y2="861.4389">
		<stop  offset="0" style="stop-color:#E0E0E0"/>
		<stop  offset="1" style="stop-color:#CCCCCC"/>
	</linearGradient>
	<path fill="url(#SVGID_5_)" d="M590.41,111.16h-334.5v10.5h47c3.866,0,7,3.134,7,7v4c0,3.866-3.134,7-7,7h-74c-3.866,0-7-3.134-7-7
		v-4c0-3.866,3.134-7,7-7h1v-10.5h-19.5v34.5h380V111.16z"/>
	<linearGradient id="SVGID_6_" gradientUnits="userSpaceOnUse" x1="215.644" y1="117.8999" x2="573.7983" y2="885.9642">
		<stop  offset="0" style="stop-color:#E0E0E0"/>
		<stop  offset="1" style="stop-color:#CCCCCC"/>
	</linearGradient>
	<path fill="url(#SVGID_6_)" d="M169.91,871.16c0,11.046,8.954,20,20,20h185v-13h-31c-3.866,0-7-3.134-7-7v-4c0-3.866,3.134-7,7-7
		h59c3.866,0,7,3.134,7,7v4c0,3.866-3.134,7-7,7h-2v13h124c0,0,37.996,1.938,71.998-28.156s34.002-78.345,34.002-78.345v-632h-461
		V871.16z"/>
	<linearGradient id="SVGID_7_" gradientUnits="userSpaceOnUse" x1="243.647" y1="107.2695" x2="613.2438" y2="899.8726">
		<stop  offset="0" style="stop-color:#E0E0E0"/>
		<stop  offset="1" style="stop-color:#CCCCCC"/>
	</linearGradient>
	<rect x="245.91" y="111.16" fill="url(#SVGID_7_)" width="4" height="10.5"/>
	<linearGradient id="SVGID_8_" gradientUnits="userSpaceOnUse" x1="235.3696" y1="110.9629" x2="604.9329" y2="903.4938">
		<stop  offset="0" style="stop-color:#E0E0E0"/>
		<stop  offset="1" style="stop-color:#CCCCCC"/>
	</linearGradient>
	<rect x="235.91" y="111.16" fill="url(#SVGID_8_)" width="4" height="10.5"/>
	<linearGradient id="SVGID_9_" gradientUnits="userSpaceOnUse" x1="57.7222" y1="165.8477" x2="424.2821" y2="951.938">
		<stop  offset="0" style="stop-color:#E0E0E0"/>
		<stop  offset="1" style="stop-color:#CCCCCC"/>
	</linearGradient>
	<rect x="390.91" y="878.16" fill="url(#SVGID_9_)" width="4" height="13"/>
	<linearGradient id="SVGID_10_" gradientUnits="userSpaceOnUse" x1="49.4297" y1="169.5112" x2="415.9897" y2="955.6016">
		<stop  offset="0" style="stop-color:#E0E0E0"/>
		<stop  offset="1" style="stop-color:#CCCCCC"/>
	</linearGradient>
	<rect x="380.91" y="878.16" fill="url(#SVGID_10_)" width="4" height="13"/>
	<linearGradient id="SVGID_11_" gradientUnits="userSpaceOnUse" x1="541.1929" y1="824.3662" x2="546.7839" y2="834.0501">
		<stop  offset="0" style="stop-color:#C9C9C9"/>
		<stop  offset="1" style="stop-color:#A8A8A8"/>
	</linearGradient>
	<path fill="url(#SVGID_11_)" d="M601.429,790.105l-120.324,68.777L601.429,790.105z"/>
	<linearGradient id="SVGID_12_" gradientUnits="userSpaceOnUse" x1="528.8062" y1="833.6777" x2="558.4804" y2="885.0751">
		<stop  offset="0" style="stop-color:#C9C9C9"/>
		<stop  offset="1" style="stop-color:#A8A8A8"/>
	</linearGradient>
	<path fill="url(#SVGID_12_)" d="M596.908,863.004c34.002-30.094,34.002-78.345,34.002-78.345v-11.18L425.135,891.16h99.774
		C524.91,891.16,562.906,893.098,596.908,863.004z"/>
	<linearGradient id="SVGID_13_" gradientUnits="userSpaceOnUse" x1="170.9097" y1="130.2852" x2="640.9216" y2="130.2852">
		<stop  offset="0" style="stop-color:#D4D4D4"/>
		<stop  offset="1" style="stop-color:#BFBFBF"/>
	</linearGradient>
	<polygon fill="url(#SVGID_13_)" points="205.16,147.41 171.91,147.41 171.91,145.91 203.66,145.91 203.66,113.16 205.16,113.16 
		205.16,147.41 	"/>
	<linearGradient id="SVGID_14_" gradientUnits="userSpaceOnUse" x1="170.9097" y1="146.6597" x2="640.9208" y2="146.6597">
		<stop  offset="0" style="stop-color:#D4D4D4"/>
		<stop  offset="1" style="stop-color:#BFBFBF"/>
	</linearGradient>
	<polygon fill="url(#SVGID_14_)" points="628.91,147.41 598.41,147.41 598.41,145.91 628.91,145.91 628.91,147.41 	"/>
	<linearGradient id="SVGID_15_" gradientUnits="userSpaceOnUse" x1="170.9097" y1="130.2852" x2="640.9227" y2="130.2852">
		<stop  offset="0" style="stop-color:#D4D4D4"/>
		<stop  offset="1" style="stop-color:#BFBFBF"/>
	</linearGradient>
	<polygon fill="url(#SVGID_15_)" points="592.16,147.41 211.41,147.41 211.41,145.91 590.66,145.91 590.66,113.16 592.16,113.16 
		592.16,147.41 	"/>
	<polygon fill="#39509C" points="358.604,776.959 358.604,776.957 358.604,776.957 	"/>
	<polygon fill="#39509C" points="348.093,782.3 348.093,782.301 348.093,782.3 	"/>
	<polygon fill="#39509C" points="337.335,787.774 337.335,787.772 337.335,787.772 	"/>
	<polygon fill="#39509C" points="326.827,793.117 326.827,793.116 326.827,793.116 	"/>
	<path fill="#39509C" d="M322.551,791.41l-0.351-0.478l0.034-0.015c-0.138-0.106-0.268-0.128-0.36-0.13
		c-0.095,0-0.311,0.031-0.72,0.239l-6.173,3.139l-0.79-1.551l7.129-3.643l-0.437-0.859l-7.043,3.581
		c-0.414,0.21-0.565,0.367-0.619,0.443c-0.039,0.055-0.162,0.229-0.045,0.638l1.081,2.122l0.435,0.435l-0.13,0.076
		c0.16,0.15,0.313,0.178,0.417,0.18h0c0.096,0,0.31-0.031,0.72-0.239l6.172-3.14l0.789,1.553l-7.127,3.643l0.437,0.858l7.042-3.581
		c0.416-0.212,0.566-0.367,0.618-0.441c0.069-0.098,0.15-0.272,0.045-0.64L322.551,791.41z"/>
	<path fill="#39509C" d="M327.558,792.37l7.048-3.584l-0.44-0.866l-7.135,3.629l-0.862-1.697l7.134-3.628l-0.482-0.947l-7.134,3.628
		l-0.864-1.695l7.135-3.629l-0.444-0.874l-7.048,3.585c-0.415,0.211-0.566,0.368-0.619,0.443c-0.038,0.053-0.15,0.211-0.056,0.597
		l0.926,1.822l-0.006,0.004l1.612,3.154c0.256,0.306,0.441,0.306,0.504,0.306v0.499l0,0l0.002-0.499
		C326.922,792.617,327.134,792.585,327.558,792.37z"/>
	<path fill="#39509C" d="M338.049,787.035l7.03-3.574l-0.444-0.874l-7.115,3.618l-1.86-3.641l0.007-0.003l-0.794-1.561l-0.868,0.446
		l1.232,2.422l-0.008,0.003l1.583,3.096c0.256,0.305,0.448,0.306,0.513,0.307l0.01,0.498l0,0v-0.498
		C337.426,787.274,337.639,787.243,338.049,787.035z"/>
	<path fill="#39509C" d="M348.097,781.801c0.096,0,0.307-0.032,0.729-0.246l7.048-3.584l-0.44-0.866l-7.135,3.629l-0.862-1.697
		l7.134-3.628l-0.481-0.946l-7.134,3.627l-0.864-1.696l7.135-3.628l-0.444-0.874l-7.048,3.584c-0.415,0.211-0.565,0.368-0.618,0.443
		c-0.041,0.057-0.16,0.224-0.043,0.642l0.955,1.857l-0.007,0.003l1.596,3.123c0.217,0.258,0.412,0.258,0.477,0.258v0.499l0,0
		L348.097,781.801z"/>
	<path fill="#39509C" d="M359.319,776.219l7.047-3.584l-0.448-0.88l-7.131,3.635l-1.841-3.606l0.006-0.003l-0.368-0.724l6.268-3.188
		l0.004,0.008l0.867-0.44l-0.448-0.882l-7.048,3.585c-0.414,0.21-0.565,0.367-0.619,0.443c-0.04,0.056-0.16,0.223-0.043,0.641
		l0.888,1.728l-0.005,0.004l0.796,1.566l0.861,1.678c0.216,0.257,0.423,0.259,0.491,0.26l0.008,0.498l0,0v-0.498
		C358.693,776.459,358.906,776.428,359.319,776.219z"/>
	<polygon fill="#39509C" points="373.357,761.429 365.36,765.505 365.786,766.35 369.371,764.527 372.03,769.755 372.861,769.332 
		370.203,764.104 373.789,762.28 	"/>
	<path fill="#39509C" d="M405.766,788.822l-0.311-0.421l0.046-0.026c-0.156-0.146-0.31-0.173-0.413-0.175
		c-0.094,0-0.31,0.031-0.72,0.239l-6.172,3.14l-0.79-1.553l7.127-3.642l-0.437-0.86l-7.043,3.581
		c-0.415,0.211-0.566,0.368-0.619,0.443c-0.068,0.097-0.149,0.271-0.045,0.639l1.079,2.119l0.414,0.4l-0.131,0.089
		c0.168,0.172,0.332,0.202,0.439,0.204h0.001c0.095,0,0.308-0.031,0.721-0.24l6.171-3.138l0.79,1.551l-7.128,3.644l0.437,0.858
		l7.043-3.581c0.416-0.212,0.565-0.368,0.618-0.442c0.04-0.056,0.162-0.229,0.046-0.64L405.766,788.822z"/>
	<polygon fill="#39509C" points="415.299,779.829 407.302,783.905 407.729,784.75 411.313,782.928 413.971,788.155 414.803,787.732 
		412.144,782.504 415.732,780.681 	"/>
	<path fill="#39509C" d="M424.963,774.93l-0.11,0.067l-5.562,2.829c-0.97,0.493-0.903,1.042-0.688,1.561l2.592,5.096l0.82-0.417
		l-0.635-1.249l6.365-3.236l0.635,1.248l0.832-0.423l-2.536-4.987C426.164,774.848,425.626,774.696,424.963,774.93z
		 M420.728,781.536l-1.141-2.24l6.366-3.237l1.141,2.24L420.728,781.536z"/>
	<path fill="#39509C" d="M439.88,772.626l-0.284-0.953c-0.122,0.047-0.182,0.146-0.191,0.187c0.002-0.005,0.025-0.114-0.037-0.471
		l-1.182-2.324c-0.182-0.226-0.411-0.387-0.636-0.403c-0.001,0-0.003,0-0.004,0c-0.147,0-0.366,0.041-0.739,0.23l-7.371,3.747
		l3.092,6.08l0.939-0.478l-0.86-1.692l6.51-3.311l0.86,1.692l0.94-0.479l-0.707-1.392
		C440.012,772.67,439.881,772.627,439.88,772.626z M431.986,775.328l-0.988-1.944l6.51-3.311l0.988,1.943L431.986,775.328z"/>
	<polygon fill="#39509C" points="449.153,762.613 441.157,766.688 441.583,767.534 445.167,765.71 447.826,770.938 448.659,770.516 
		446,765.288 449.585,763.465 	"/>
	<path fill="#39509C" d="M522.017,701.124c-0.001,0.005-0.007,0.002-0.012-0.002l-0.33-0.174l-0.437-0.166l0.2-0.816
		c-0.003-0.026-0.008-0.055-0.017-0.086l-0.017-0.159l-1.23-2.515c-0.207-0.254-0.472-0.422-0.758-0.431h-0.001
		c-0.183,0-0.485,0.054-1.007,0.308l-9.339,4.535l3.984,8.204l9.338-4.536c0.543-0.264,0.77-0.473,0.864-0.602
		c0.172-0.23,0.203-0.542,0.098-0.955L522.017,701.124z M511.155,702.343l7.925-3.849l0.947,1.95l-7.925,3.849L511.155,702.343z
		 M513.774,707.736l-0.942-1.942l7.925-3.849l0.942,1.942L513.774,707.736z"/>
	<path fill="#39509C" d="M597.12,660.76c-0.697-0.814-1.46-1.042-2.398-0.722l-0.136,0.085l-7.266,3.528
		c-1.08,0.524-1.39,1.199-1.001,2.188l3.303,6.798l1.335-0.649l-0.793-1.631l8.049-3.908l0.792,1.632l1.353-0.657L597.12,660.76z
		 M589.224,668.422l-1.293-2.663l8.048-3.909l1.293,2.663L589.224,668.422z"/>
	<linearGradient id="SVGID_16_" gradientUnits="userSpaceOnUse" x1="231.8433" y1="575.8633" x2="293.8427" y2="708.8215">
		<stop  offset="0" style="stop-color:#C9C9C9"/>
		<stop  offset="1" style="stop-color:#E0E0E0"/>
	</linearGradient>
	<circle fill="url(#SVGID_16_)" cx="262.843" cy="642.343" r="73.334"/>
	<polygon fill="#D9D9D9" points="194.792,642.759 201.894,647.272 201.894,638.411 	"/>
	<polygon fill="#D9D9D9" points="330.894,642.759 323.792,647.272 323.792,638.411 	"/>
	<polygon fill="#D9D9D9" points="262.76,711.894 267.273,704.79 258.413,704.79 	"/>
	<polygon fill="#D9D9D9" points="262.76,572.79 267.273,579.894 258.413,579.894 	"/>
	<linearGradient id="SVGID_17_" gradientUnits="userSpaceOnUse" x1="239.4673" y1="591.7129" x2="291.6935" y2="703.7125">
		<stop  offset="0" style="stop-color:#595A5C"/>
		<stop  offset="0.1669" style="stop-color:#373838"/>
		<stop  offset="0.2761" style="stop-color:#262626"/>
	</linearGradient>
	<path fill="url(#SVGID_17_)" d="M315.197,621.011h-30.522v-32.522c0-3.042-2.467-5.509-5.509-5.509H248.52
		c-3.042,0-5.508,2.467-5.508,5.509v32.522h-32.522c-3.042,0-5.509,2.467-5.509,5.509v30.646c0,3.042,2.466,5.51,5.509,5.51h32.522
		v33.521c0,3.043,2.467,5.51,5.508,5.51h30.647c3.042,0,5.509-2.467,5.509-5.51v-33.521h30.522c3.042,0,5.509-2.468,5.509-5.51
		V626.52C320.706,623.478,318.24,621.011,315.197,621.011z"/>
	<linearGradient id="SVGID_18_" gradientUnits="userSpaceOnUse" x1="239.8638" y1="592.6641" x2="286.4145" y2="692.4924">
		<stop  offset="0" style="stop-color:#231F20"/>
		<stop  offset="1" style="stop-color:#424143"/>
	</linearGradient>
	<path fill="url(#SVGID_18_)" d="M311.808,625.244h-31.465v-33.068c0-2.438-1.978-4.416-4.416-4.416h-24.565
		c-2.438,0-4.415,1.978-4.415,4.416v33.068h-33.068c-2.439,0-4.416,1.978-4.416,4.416v24.563c0,2.438,1.977,4.417,4.416,4.417
		h33.068v33.869c0,2.438,1.977,4.416,4.415,4.416h24.565c2.438,0,4.416-1.978,4.416-4.416v-33.869h31.465
		c2.438,0,4.416-1.979,4.416-4.417V629.66C316.223,627.222,314.246,625.244,311.808,625.244z"/>
	<linearGradient id="SVGID_19_" gradientUnits="userSpaceOnUse" x1="256.561" y1="628.8701" x2="269.1257" y2="655.8151">
		<stop  offset="0" style="stop-color:#231F20"/>
		<stop  offset="1" style="stop-color:#333333"/>
	</linearGradient>
	<circle fill="url(#SVGID_19_)" cx="262.843" cy="642.343" r="14.862"/>
	<linearGradient id="SVGID_20_" gradientUnits="userSpaceOnUse" x1="515.9292" y1="599.7646" x2="549.0041" y2="670.694">
		<stop  offset="0" style="stop-color:#C9C9C9"/>
		<stop  offset="1" style="stop-color:#E0E0E0"/>
	</linearGradient>
	<path fill="url(#SVGID_20_)" d="M491.679,695.642c-15.047-0.23-29.389-8.81-36.271-23.327
		c-9.651-20.362-0.969-44.692,19.391-54.345l80.808-38.305c20.359-9.655,44.69-0.973,54.343,19.39
		c9.653,20.361,0.972,44.691-19.39,54.344l-80.807,38.306C503.91,694.475,497.736,695.734,491.679,695.642L491.679,695.642z"/>
	<path fill="#818285" d="M493.577,683.576c-16.036,0-29.083-13.047-29.083-29.083s13.047-29.083,29.083-29.083
		s29.083,13.047,29.083,29.083S509.613,683.576,493.577,683.576L493.577,683.576z M493.577,626.91
		c-15.209,0-27.583,12.374-27.583,27.583s12.374,27.583,27.583,27.583s27.583-12.374,27.583-27.583S508.786,626.91,493.577,626.91
		L493.577,626.91z"/>
	<linearGradient id="SVGID_21_" gradientUnits="userSpaceOnUse" x1="481.603" y1="628.8154" x2="505.5503" y2="680.1705">
		<stop  offset="0" style="stop-color:#C97A9B"/>
		<stop  offset="1" style="stop-color:#9B2063"/>
	</linearGradient>
	<path fill="url(#SVGID_21_)" d="M493.577,626.16c-15.623,0-28.333,12.71-28.333,28.333s12.71,28.333,28.333,28.333
		s28.333-12.71,28.333-28.333S509.2,626.16,493.577,626.16z"/>
	<linearGradient id="SVGID_22_" gradientUnits="userSpaceOnUse" x1="482.6001" y1="630.9541" x2="504.5527" y2="678.0317">
		<stop  offset="0" style="stop-color:#BD5582"/>
		<stop  offset="0.5759" style="stop-color:#A7356D"/>
		<stop  offset="1" style="stop-color:#9B2063"/>
	</linearGradient>
	<circle fill="url(#SVGID_22_)" cx="493.577" cy="654.493" r="25.966"/>
	<path fill="#818285" d="M570.911,647.576c-16.036,0-29.083-13.047-29.083-29.083s13.047-29.083,29.083-29.083
		s29.083,13.047,29.083,29.083S586.947,647.576,570.911,647.576L570.911,647.576z M570.911,590.91
		c-15.209,0-27.583,12.374-27.583,27.583s12.374,27.583,27.583,27.583s27.583-12.374,27.583-27.583S586.12,590.91,570.911,590.91
		L570.911,590.91z"/>
	<linearGradient id="SVGID_23_" gradientUnits="userSpaceOnUse" x1="558.937" y1="592.8164" x2="582.8843" y2="644.1715">
		<stop  offset="0" style="stop-color:#C97A9B"/>
		<stop  offset="1" style="stop-color:#9B2063"/>
	</linearGradient>
	<path fill="url(#SVGID_23_)" d="M570.911,590.16c-15.623,0-28.333,12.71-28.333,28.333s12.71,28.333,28.333,28.333
		s28.333-12.71,28.333-28.333S586.534,590.16,570.911,590.16z"/>
	<linearGradient id="SVGID_24_" gradientUnits="userSpaceOnUse" x1="559.9341" y1="594.9551" x2="581.8875" y2="642.0344">
		<stop  offset="0" style="stop-color:#BD5582"/>
		<stop  offset="0.5759" style="stop-color:#A7356D"/>
		<stop  offset="1" style="stop-color:#9B2063"/>
	</linearGradient>
	<circle fill="url(#SVGID_24_)" cx="570.911" cy="618.493" r="25.966"/>
	<linearGradient id="SVGID_25_" gradientUnits="userSpaceOnUse" x1="329.644" y1="742.0879" x2="343.732" y2="772.2996">
		<stop  offset="0" style="stop-color:#C4C4C4"/>
		<stop  offset="1" style="stop-color:#E0E0E0"/>
	</linearGradient>
	<path fill="url(#SVGID_25_)" d="M317.783,782.757c-5.846,0-11.477-3.215-14.293-8.788c-3.985-7.888-0.822-17.512,7.065-21.496
		l37.836-19.117c7.886-3.986,17.511-0.822,21.496,7.064c3.985,7.888,0.822,17.512-7.065,21.496l-37.836,19.117
		C322.673,782.202,320.209,782.757,317.783,782.757L317.783,782.757z"/>
	<path fill="#939598" d="M363.64,743.578c-1.54-3.05-4.621-4.944-8.039-4.944c-1.417,0-2.78,0.326-4.052,0.969l-37.837,19.117
		c-2.146,1.084-3.74,2.939-4.491,5.223c-0.751,2.284-0.567,4.724,0.517,6.868c1.54,3.05,4.62,4.944,8.039,4.944
		c1.397,0,2.798-0.335,4.053-0.969l37.837-19.117c2.146-1.084,3.74-2.939,4.491-5.223
		C364.908,748.162,364.724,745.723,363.64,743.578z"/>
	<linearGradient id="SVGID_26_" gradientUnits="userSpaceOnUse" x1="333.2368" y1="749.791" x2="340.1411" y2="764.5973">
		<stop  offset="0" style="stop-color:#A8AAAD"/>
		<stop  offset="1" style="stop-color:#818285"/>
	</linearGradient>
	<path fill="url(#SVGID_26_)" d="M317.776,774.255c-2.74,0-5.38-1.507-6.7-4.12c-1.868-3.696-0.385-8.208,3.312-10.076
		l37.836-19.117c3.697-1.868,8.209-0.385,10.076,3.312c1.868,3.696,0.385,8.208-3.312,10.076l-37.836,19.117
		C320.068,773.995,318.914,774.255,317.776,774.255L317.776,774.255z"/>
	<linearGradient id="SVGID_27_" gradientUnits="userSpaceOnUse" x1="407.645" y1="742.0889" x2="421.733" y2="772.3006">
		<stop  offset="0" style="stop-color:#C4C4C4"/>
		<stop  offset="1" style="stop-color:#E0E0E0"/>
	</linearGradient>
	<path fill="url(#SVGID_27_)" d="M395.783,782.757c-5.846,0-11.477-3.215-14.293-8.788c-3.985-7.888-0.822-17.512,7.065-21.496
		l37.837-19.117c7.886-3.986,17.51-0.822,21.496,7.064c3.984,7.888,0.821,17.512-7.066,21.496l-37.836,19.117
		C400.673,782.202,398.208,782.757,395.783,782.757L395.783,782.757z"/>
	<path fill="#939598" d="M441.639,743.578c-1.54-3.05-4.62-4.944-8.039-4.944c-1.417,0-2.78,0.326-4.053,0.969l-37.836,19.117
		c-2.146,1.084-3.74,2.939-4.491,5.223c-0.751,2.284-0.567,4.724,0.517,6.868c1.54,3.05,4.62,4.944,8.039,4.944
		c1.397,0,2.798-0.335,4.053-0.969l37.837-19.117c2.146-1.084,3.74-2.939,4.49-5.223
		C442.908,748.162,442.724,745.723,441.639,743.578z"/>
	<linearGradient id="SVGID_28_" gradientUnits="userSpaceOnUse" x1="411.2358" y1="749.792" x2="418.1401" y2="764.5983">
		<stop  offset="0" style="stop-color:#A8AAAD"/>
		<stop  offset="1" style="stop-color:#818285"/>
	</linearGradient>
	<path fill="url(#SVGID_28_)" d="M395.776,774.255c-2.74,0-5.38-1.507-6.7-4.12c-1.868-3.696-0.385-8.208,3.312-10.076
		l37.836-19.117c3.697-1.868,8.209-0.385,10.076,3.312c1.869,3.696,0.386,8.208-3.311,10.076l-37.837,19.117
		C398.068,773.995,396.914,774.255,395.776,774.255L395.776,774.255z"/>
	<linearGradient id="SVGID_29_" gradientUnits="userSpaceOnUse" x1="308.2725" y1="130.9053" x2="483.1394" y2="505.9087">
		<stop  offset="0" style="stop-color:#7C7F81"/>
		<stop  offset="0.0152" style="stop-color:#7C7E81"/>
		<stop  offset="0.625" style="stop-color:#676B7C"/>
		<stop  offset="1" style="stop-color:#60657A"/>
	</linearGradient>
	<path fill="url(#SVGID_29_)" d="M576.244,458.826c16.734-16.734,18.333-38.188,18.333-46.333s0-224,0-224c0-7.732-6.268-14-14-14
		H217.91c-7.732,0-14,6.268-14,14v275c0,7.732,6.268,14,14,14c0,0,307.875,0,312,0S559.509,475.561,576.244,458.826z"/>
	<linearGradient id="SVGID_30_" gradientUnits="userSpaceOnUse" x1="331.3726" y1="181.8994" x2="465.4465" y2="469.422">
		<stop  offset="0" style="stop-color:#C2AA33"/>
		<stop  offset="1" style="stop-color:#9F8E32"/>
	</linearGradient>
	<rect x="272.91" y="209.16" fill="url(#SVGID_30_)" width="251" height="233"/>
	<polygon fill="#9F8E32" points="280.91,217.16 523.91,217.16 523.91,209.16 272.91,209.16 272.91,442.16 280.91,442.16 	"/>
	<polygon fill="#9E2064" points="576.244,188.494 531.577,188.494 531.577,186.494 576.244,186.494 576.244,188.494 	"/>
	<polygon fill="#9E2064" points="321.577,188.494 220.243,188.494 220.243,186.494 321.577,186.494 321.577,188.494 	"/>
	<path fill="#282561" d="M576.244,196.494h-44.667c-0.553,0-1-0.448-1-1s0.447-1,1-1h44.667c0.553,0,1,0.448,1,1
		S576.796,196.494,576.244,196.494L576.244,196.494z"/>
	<path fill="#282561" d="M321.577,196.494l-101.333,0c-0.552,0-1-0.448-1-1s0.448-1,1-1l101.333,0c0.552,0,1,0.448,1,1
		S322.129,196.494,321.577,196.494L321.577,196.494z"/>
	<path fill="#A8AAAD" d="M331.014,193.828v-7.441h1.661c0.796,0,1.426,0.074,1.887,0.222c0.496,0.145,0.945,0.39,1.349,0.737
		c0.817,0.7,1.226,1.621,1.226,2.761c0,1.144-0.426,2.069-1.277,2.776c-0.427,0.354-0.875,0.6-1.343,0.738
		c-0.438,0.138-1.058,0.207-1.861,0.207H331.014z M332.208,192.772h0.539c0.536,0,0.982-0.053,1.338-0.159
		c0.355-0.112,0.677-0.291,0.964-0.535c0.588-0.504,0.882-1.161,0.882-1.971c0-0.816-0.291-1.478-0.872-1.985
		c-0.523-0.453-1.294-0.68-2.312-0.68h-0.539V192.772z"/>
	<path fill="#A8AAAD" d="M338.831,190.073c0-1.047,0.408-1.947,1.226-2.699c0.813-0.752,1.791-1.128,2.933-1.128
		c1.128,0,2.095,0.379,2.901,1.138c0.811,0.758,1.215,1.669,1.215,2.732c0,1.07-0.407,1.978-1.22,2.723
		c-0.817,0.749-1.803,1.123-2.958,1.123c-1.022,0-1.94-0.333-2.753-0.998C339.278,192.229,338.831,191.266,338.831,190.073z
		 M340.036,190.085c0,0.822,0.293,1.498,0.882,2.027c0.584,0.529,1.259,0.794,2.025,0.794c0.831,0,1.531-0.27,2.102-0.809
		c0.571-0.545,0.856-1.21,0.856-1.994c0-0.792-0.282-1.457-0.846-1.993c-0.561-0.54-1.254-0.809-2.082-0.809
		c-0.824,0-1.52,0.27-2.087,0.809C340.319,188.644,340.036,189.302,340.036,190.085z"/>
	<path fill="#A8AAAD" d="M351.098,187.442v6.386h-1.195v-6.386h-1.82v-1.055h4.829v1.055H351.098z"/>
	<path fill="#A8AAAD" d="M358.119,193.828l1.666-8l2.717,5.783l2.815-5.783l1.497,8h-1.226l-0.764-4.492l-2.343,4.834l-2.276-4.839
		l-0.851,4.497H358.119z"/>
	<path fill="#A8AAAD" d="M373.729,192.021h-3.389l-0.882,1.807h-1.287l3.917-7.909l3.778,7.909h-1.307L373.729,192.021z
		 M373.241,190.965l-1.174-2.53l-1.23,2.53H373.241z"/>
	<path fill="#A8AAAD" d="M379.188,187.442v6.386h-1.195v-6.386h-1.82v-1.055h4.829v1.055H379.188z"/>
	<path fill="#A8AAAD" d="M385.338,190.657l2.451,3.171h-1.461l-2.261-3.046h-0.215v3.046h-1.195v-7.441h1.4
		c1.046,0,1.801,0.185,2.266,0.554c0.513,0.411,0.769,0.954,0.769,1.629c0,0.527-0.161,0.98-0.482,1.359
		C386.289,190.308,385.865,190.55,385.338,190.657z M383.852,189.804h0.379c1.131,0,1.697-0.407,1.697-1.22
		c0-0.761-0.551-1.142-1.651-1.142h-0.425V189.804z"/>
	<path fill="#A8AAAD" d="M390.761,186.387v7.441h-1.195v-7.441H390.761z"/>
	<path fill="#A8AAAD" d="M394.907,189.938l-2.179-3.552h1.358l1.513,2.521l1.589-2.521h1.369l-2.281,3.552l2.394,3.889h-1.338
		l-1.753-2.848l-1.805,2.848h-1.354L394.907,189.938z"/>
	<path fill="#A8AAAD" d="M404.542,186.387l2.062,4.974l2.153-5.335l2.061,5.335l2.189-4.974h1.297l-3.537,7.913l-2.036-5.272
		l-2.122,5.277l-3.363-7.918H404.542z"/>
	<path fill="#A8AAAD" d="M417.071,186.387v7.441h-1.194v-7.441H417.071z"/>
	<path fill="#A8AAAD" d="M421.746,187.442v6.386h-1.195v-6.386h-1.82v-1.055h4.83v1.055H421.746z"/>
	<path fill="#A8AAAD" d="M426.409,189.297h3.415v-2.911h1.193v7.441h-1.193v-3.475h-3.415v3.475h-1.194v-7.441h1.194V189.297z"/>
	<path fill="#A8AAAD" d="M441.806,187.49l-0.969,0.54c-0.182-0.295-0.354-0.488-0.518-0.578c-0.171-0.103-0.392-0.154-0.661-0.154
		c-0.332,0-0.606,0.088-0.825,0.265c-0.219,0.174-0.328,0.393-0.328,0.656c0,0.363,0.287,0.656,0.861,0.877l0.789,0.304
		c0.643,0.244,1.112,0.542,1.41,0.895c0.297,0.352,0.445,0.784,0.445,1.295c0,0.685-0.242,1.25-0.728,1.698
		c-0.489,0.45-1.096,0.675-1.82,0.675c-0.687,0-1.255-0.192-1.702-0.576c-0.44-0.383-0.716-0.922-0.825-1.616l1.21-0.251
		c0.055,0.437,0.15,0.739,0.287,0.906c0.246,0.321,0.605,0.482,1.076,0.482c0.373,0,0.683-0.117,0.929-0.352
		s0.369-0.531,0.369-0.891c0-0.145-0.021-0.277-0.064-0.397c-0.042-0.121-0.109-0.231-0.2-0.333
		c-0.09-0.101-0.207-0.196-0.351-0.284s-0.315-0.172-0.513-0.253l-0.764-0.298c-1.084-0.43-1.626-1.06-1.626-1.888
		c0-0.559,0.228-1.026,0.683-1.401c0.454-0.379,1.02-0.568,1.696-0.568C440.582,186.242,441.294,186.658,441.806,187.49z"/>
	<path fill="#A8AAAD" d="M446.374,187.442v6.386h-1.194v-6.386h-1.82v-1.055h4.829v1.055H446.374z"/>
	<path fill="#A8AAAD" d="M454.21,187.442h-3.174v1.788h3.082v1.056h-3.082v2.486h3.174v1.056h-4.368v-7.441h4.368V187.442z"/>
	<path fill="#A8AAAD" d="M459.048,190.657l2.451,3.171h-1.461l-2.262-3.046h-0.215v3.046h-1.195v-7.441h1.4
		c1.046,0,1.801,0.185,2.266,0.554c0.514,0.411,0.77,0.954,0.77,1.629c0,0.527-0.16,0.98-0.482,1.359
		C460,190.308,459.576,190.55,459.048,190.657z M457.562,189.804h0.379c1.132,0,1.697-0.407,1.697-1.22
		c0-0.761-0.551-1.142-1.65-1.142h-0.426V189.804z"/>
	<path fill="#A8AAAD" d="M467.645,187.442h-3.173v1.788h3.081v1.056h-3.081v2.486h3.173v1.056h-4.368v-7.441h4.368V187.442z"/>
	<path fill="#A8AAAD" d="M469.408,190.073c0-1.047,0.408-1.947,1.226-2.699c0.813-0.752,1.79-1.128,2.933-1.128
		c1.128,0,2.095,0.379,2.901,1.138c0.811,0.758,1.216,1.669,1.216,2.732c0,1.07-0.407,1.978-1.221,2.723
		c-0.816,0.749-1.803,1.123-2.958,1.123c-1.022,0-1.94-0.333-2.753-0.998C469.855,192.229,469.408,191.266,469.408,190.073z
		 M470.613,190.085c0,0.822,0.293,1.498,0.882,2.027c0.584,0.529,1.259,0.794,2.024,0.794c0.831,0,1.531-0.27,2.103-0.809
		c0.571-0.545,0.856-1.21,0.856-1.994c0-0.792-0.282-1.457-0.846-1.993c-0.561-0.54-1.255-0.809-2.082-0.809
		c-0.824,0-1.52,0.27-2.087,0.809C470.896,188.644,470.613,189.302,470.613,190.085z"/>
	<path fill="#A8AAAD" d="M488.077,187.49l-0.97,0.54c-0.181-0.295-0.354-0.488-0.518-0.578c-0.17-0.103-0.391-0.154-0.66-0.154
		c-0.332,0-0.607,0.088-0.826,0.265c-0.219,0.174-0.328,0.393-0.328,0.656c0,0.363,0.287,0.656,0.861,0.877l0.789,0.304
		c0.643,0.244,1.113,0.542,1.41,0.895s0.446,0.784,0.446,1.295c0,0.685-0.243,1.25-0.728,1.698c-0.489,0.45-1.096,0.675-1.82,0.675
		c-0.688,0-1.255-0.192-1.703-0.576c-0.439-0.383-0.715-0.922-0.824-1.616l1.209-0.251c0.055,0.437,0.15,0.739,0.287,0.906
		c0.246,0.321,0.605,0.482,1.077,0.482c0.372,0,0.683-0.117,0.929-0.352s0.369-0.531,0.369-0.891c0-0.145-0.021-0.277-0.064-0.397
		c-0.043-0.121-0.109-0.231-0.2-0.333s-0.208-0.196-0.351-0.284c-0.145-0.088-0.315-0.172-0.514-0.253l-0.764-0.298
		c-1.084-0.43-1.625-1.06-1.625-1.888c0-0.559,0.227-1.026,0.682-1.401c0.455-0.379,1.02-0.568,1.697-0.568
		C486.851,186.242,487.564,186.658,488.077,187.49z"/>
	<path fill="#A8AAAD" d="M489.916,190.073c0-1.047,0.408-1.947,1.226-2.699c0.813-0.752,1.79-1.128,2.933-1.128
		c1.128,0,2.095,0.379,2.901,1.138c0.811,0.758,1.215,1.669,1.215,2.732c0,1.07-0.406,1.978-1.22,2.723
		c-0.816,0.749-1.803,1.123-2.958,1.123c-1.022,0-1.94-0.333-2.753-0.998C490.363,192.229,489.916,191.266,489.916,190.073z
		 M491.121,190.085c0,0.822,0.293,1.498,0.882,2.027c0.584,0.529,1.259,0.794,2.024,0.794c0.831,0,1.531-0.27,2.103-0.809
		c0.57-0.545,0.856-1.21,0.856-1.994c0-0.792-0.282-1.457-0.846-1.993c-0.561-0.54-1.255-0.809-2.082-0.809
		c-0.824,0-1.52,0.27-2.087,0.809C491.404,188.644,491.121,189.302,491.121,190.085z"/>
	<path fill="#A8AAAD" d="M501.475,186.387v4.479c0,0.639,0.111,1.106,0.334,1.401c0.331,0.427,0.798,0.641,1.399,0.641
		c0.604,0,1.073-0.213,1.405-0.641c0.222-0.286,0.333-0.753,0.333-1.401v-4.479h1.194v4.791c0,0.784-0.26,1.43-0.779,1.937
		c-0.584,0.565-1.303,0.848-2.153,0.848s-1.567-0.283-2.148-0.848c-0.52-0.507-0.779-1.153-0.779-1.937v-4.791H501.475z"/>
	<path fill="#A8AAAD" d="M508.625,193.828v-7.947l5.773,5.677v-5.171h1.194v7.894l-5.773-5.663v5.209H508.625z"/>
	<path fill="#A8AAAD" d="M518.078,193.828v-7.441h1.661c0.797,0,1.426,0.074,1.887,0.222c0.496,0.145,0.945,0.39,1.349,0.737
		c0.816,0.7,1.226,1.621,1.226,2.761c0,1.144-0.426,2.069-1.277,2.776c-0.427,0.354-0.875,0.6-1.343,0.738
		c-0.438,0.138-1.058,0.207-1.861,0.207H518.078z M519.272,192.772h0.539c0.536,0,0.982-0.053,1.338-0.159
		c0.355-0.112,0.677-0.291,0.964-0.535c0.588-0.504,0.882-1.161,0.882-1.971c0-0.816-0.291-1.478-0.871-1.985
		c-0.523-0.453-1.294-0.68-2.312-0.68h-0.539V192.772z"/>
	<linearGradient id="SVGID_31_" gradientUnits="userSpaceOnUse" x1="228.5659" y1="287.0918" x2="233.9205" y2="298.5746">
		<stop  offset="0" style="stop-color:#EF4237"/>
		<stop  offset="1" style="stop-color:#CD3634"/>
	</linearGradient>
	<circle fill="url(#SVGID_31_)" cx="231.244" cy="292.833" r="6.333"/>
	<path fill="#A8AAAD" d="M215.877,315.827v-7.441h1.189c0.53,0,0.952,0.039,1.267,0.116c0.318,0.077,0.586,0.207,0.805,0.39
		c0.222,0.189,0.398,0.426,0.528,0.708c0.133,0.286,0.2,0.575,0.2,0.868c0,0.533-0.217,0.984-0.651,1.354
		c0.42,0.135,0.752,0.371,0.995,0.708c0.246,0.334,0.369,0.723,0.369,1.166c0,0.582-0.219,1.073-0.656,1.475
		c-0.263,0.247-0.559,0.419-0.887,0.516c-0.358,0.093-0.808,0.14-1.348,0.14H215.877z M217.072,311.582h0.375
		c0.444,0,0.77-0.093,0.977-0.277c0.207-0.185,0.31-0.457,0.31-0.817c0-0.35-0.106-0.616-0.318-0.797
		c-0.212-0.182-0.52-0.272-0.923-0.272h-0.42V311.582z M217.072,314.771h0.738c0.54,0,0.937-0.099,1.189-0.298
		c0.267-0.215,0.4-0.489,0.4-0.819c0-0.321-0.128-0.591-0.385-0.81c-0.25-0.215-0.695-0.323-1.338-0.323h-0.605V314.771z"/>
	<path fill="#A8AAAD" d="M227.206,314.02h-3.389l-0.882,1.807h-1.287l3.917-7.909l3.778,7.909h-1.307L227.206,314.02z
		 M226.718,312.964l-1.174-2.53l-1.23,2.53H226.718z"/>
	<path fill="#A8AAAD" d="M232.665,309.441v6.386h-1.195v-6.386h-1.82v-1.055h4.829v1.055H232.665z"/>
	<path fill="#A8AAAD" d="M238.318,309.441v6.386h-1.195v-6.386h-1.82v-1.055h4.829v1.055H238.318z"/>
	<path fill="#A8AAAD" d="M246.155,309.441h-3.173v1.788h3.082v1.056h-3.082v2.486h3.173v1.056h-4.368v-7.441h4.368V309.441z"/>
	<path fill="#A8AAAD" d="M250.993,312.656l2.451,3.171h-1.461l-2.261-3.046h-0.215v3.046h-1.195v-7.441h1.4
		c1.046,0,1.801,0.185,2.266,0.554c0.513,0.411,0.769,0.954,0.769,1.629c0,0.527-0.161,0.98-0.482,1.359
		C251.943,312.308,251.52,312.55,250.993,312.656z M249.506,311.803h0.379c1.131,0,1.697-0.407,1.697-1.22
		c0-0.761-0.551-1.142-1.651-1.142h-0.425V311.803z"/>
	<path fill="#A8AAAD" d="M256.473,312.613l-2.584-4.227h1.374l1.81,2.974l1.815-2.974h1.374l-2.594,4.227v3.214h-1.195V312.613z"/>
	<path fill="none" d="M580.577,176.993H217.91c-6.341,0-11.5,5.159-11.5,11.5v275c0,6.341,5.159,11.5,11.5,11.5h312
		c0.267-0.001,27.245-0.614,44.566-17.935c15.886-15.886,17.601-36.458,17.601-44.565v-224
		C592.077,182.152,586.917,176.993,580.577,176.993z"/>
	<linearGradient id="SVGID_32_" gradientUnits="userSpaceOnUse" x1="327.8472" y1="172.8848" x2="478.7626" y2="496.524">
		<stop  offset="0" style="stop-color:#8A8A8A"/>
		<stop  offset="1" style="stop-color:#404040"/>
	</linearGradient>
	<path fill="url(#SVGID_32_)" d="M529.91,475.993h-312c-6.893,0-12.5-5.607-12.5-12.5v-275c0-6.893,5.607-12.5,12.5-12.5h362.667
		c6.893,0,12.5,5.607,12.5,12.5v224c0,8.232-1.743,29.122-17.894,45.272C557.451,475.497,530.18,475.993,529.91,475.993
		L529.91,475.993z M217.91,177.493c-6.065,0-11,4.935-11,11v275c0,6.065,4.935,11,11,11h312c0.264-0.002,27.164-0.74,44.213-17.788
		c15.753-15.754,17.454-36.167,17.454-44.212v-224c0-6.065-4.935-11-11-11H217.91L217.91,177.493z"/>
	<polygon fill="#D2D3D4" points="248.91,113.321 248.91,120.66 246.91,120.66 246.91,121.66 249.91,121.66 249.91,113.321 	"/>
	<path fill="#D2D3D4" d="M301.91,120.66h-45v1h46c1.678,0,3.218,0.592,4.423,1.577C306.05,121.665,304.098,120.66,301.91,120.66z"/>
	<polygon fill="#D2D3D4" points="238.91,120.66 236.91,120.66 236.91,121.66 239.91,121.66 239.91,113.321 238.91,113.321 	"/>
	<path fill="#D2D3D4" d="M228.91,120.66h-1c-3.866,0-7,3.134-7,7v4c0,2.188,1.004,4.14,2.577,5.423
		c-0.985-1.206-1.577-2.745-1.577-4.423v-4c0-3.866,3.134-7,7-7h1v-8.339h-1V120.66z"/>
	<linearGradient id="SVGID_33_" gradientUnits="userSpaceOnUse" x1="252.7773" y1="102.4971" x2="276.2438" y2="152.821">
		<stop  offset="0" style="stop-color:#E0E0E0"/>
		<stop  offset="1" style="stop-color:#DEDEDE"/>
	</linearGradient>
	<path fill="url(#SVGID_33_)" d="M256.91,113.16v8.5h46c3.866,0,7,3.134,7,7v4c0,3.866-3.134,7-7,7h-74c-3.866,0-7-3.134-7-7v-4
		c0-3.866,3.134-7,7-7h1v-8.5h7v8.5h3v-8.5h7v8.5h3v-8.5H256.91z"/>
	<path fill="#E0E0E0" d="M245.096,126.052c-1.196,0-2.22,0.394-3.072,1.182c-0.856,0.788-1.284,1.73-1.284,2.827
		c0,1.249,0.469,2.259,1.407,3.029c0.852,0.697,1.813,1.045,2.884,1.045c1.21,0,2.243-0.392,3.099-1.177
		c0.852-0.781,1.278-1.731,1.278-2.853c0-1.114-0.424-2.068-1.273-2.863C247.291,126.45,246.277,126.052,245.096,126.052z
		 M247.25,132.182c-0.598,0.565-1.332,0.848-2.202,0.848c-0.802,0-1.509-0.277-2.122-0.833c-0.616-0.555-0.924-1.263-0.924-2.124
		c0-0.82,0.297-1.51,0.892-2.068c0.594-0.565,1.323-0.847,2.186-0.847c0.867,0,1.593,0.282,2.181,0.847
		c0.591,0.562,0.886,1.258,0.886,2.088C248.146,130.915,247.848,131.611,247.25,132.182z"/>
	<polygon fill="#E0E0E0" points="251.599,133.994 252.85,133.994 252.85,130.283 255.638,130.283 255.638,129.178 252.85,129.178 
		252.85,127.305 255.74,127.305 255.74,126.199 251.599,126.199 	"/>
	<polygon fill="#E0E0E0" points="257.806,133.994 259.057,133.994 259.057,130.283 261.845,130.283 261.845,129.178 
		259.057,129.178 259.057,127.305 261.947,127.305 261.947,126.199 257.806,126.199 	"/>
	<path fill="#E0E0E0" d="M267.192,128.021c-0.48,0-0.89,0.17-1.23,0.51c-0.336,0.336-0.505,0.749-0.505,1.235
		c0,0.476,0.167,0.886,0.5,1.23c0.34,0.34,0.743,0.51,1.208,0.51c0.473,0,0.875-0.17,1.208-0.51c0.333-0.336,0.5-0.749,0.5-1.235
		c0-0.476-0.167-0.884-0.5-1.225C268.044,128.193,267.651,128.021,267.192,128.021z"/>
	<path fill="#E0E0E0" d="M276.864,126.052c-1.196,0-2.22,0.394-3.072,1.182c-0.856,0.788-1.284,1.73-1.284,2.827
		c0,1.249,0.469,2.259,1.407,3.029c0.852,0.697,1.813,1.045,2.884,1.045c1.21,0,2.243-0.392,3.099-1.177
		c0.852-0.781,1.278-1.731,1.278-2.853c0-1.114-0.424-2.068-1.273-2.863C279.059,126.45,278.046,126.052,276.864,126.052z
		 M279.018,132.182c-0.598,0.565-1.332,0.848-2.202,0.848c-0.802,0-1.509-0.277-2.122-0.833c-0.616-0.555-0.924-1.263-0.924-2.124
		c0-0.82,0.297-1.51,0.892-2.068c0.594-0.565,1.323-0.847,2.186-0.847c0.867,0,1.593,0.282,2.181,0.847
		c0.591,0.562,0.886,1.258,0.886,2.088C279.915,130.915,279.616,131.611,279.018,132.182z"/>
	<polygon fill="#E0E0E0" points="289.415,131.616 283.367,125.668 283.367,133.994 284.619,133.994 284.619,128.536 
		290.667,134.469 290.667,126.199 289.415,126.199 	"/>
	<polygon fill="#E0E0E0" points="238.012,135.708 238.012,125.682 227.985,130.601 	"/>
	<polygon fill="#E0E0E0" points="293.917,125.682 293.917,135.709 303.944,130.79 	"/>
	<path fill="#D1D1D1" d="M243.416,132.568c-0.267-0.434-0.414-0.928-0.414-1.495c0-0.82,0.297-1.51,0.892-2.068
		c0.594-0.565,1.323-0.847,2.186-0.847c0.625,0,1.173,0.152,1.653,0.445c-0.13-0.212-0.279-0.415-0.472-0.598
		c-0.581-0.559-1.299-0.839-2.153-0.845c-0.78,0.162-1.478,0.513-2.083,1.073c-0.438,0.402-0.759,0.846-0.973,1.33
		c-0.028,0.165-0.048,0.333-0.048,0.51c0,0.861,0.308,1.569,0.924,2.124C243.083,132.339,243.247,132.462,243.416,132.568z"/>
	<path fill="#D1D1D1" d="M249.136,128.244c-0.131-0.124-0.274-0.22-0.414-0.324c0.455,0.644,0.687,1.372,0.687,2.187
		c0,0.554-0.106,1.066-0.314,1.537c-0.106,0.586-0.385,1.1-0.845,1.539c-0.598,0.565-1.332,0.848-2.202,0.848
		c-0.006,0-0.011-0.001-0.017-0.001c-0.32,0.065-0.65,0.107-0.999,0.107c-0.963,0-1.833-0.298-2.62-0.862
		c0.204,0.293,0.437,0.571,0.735,0.816c0.852,0.697,1.813,1.045,2.884,1.045c1.21,0,2.243-0.392,3.099-1.177
		c0.852-0.781,1.278-1.731,1.278-2.853C250.409,129.993,249.984,129.038,249.136,128.244z"/>
	<polygon fill="#D1D1D1" points="255.638,130.283 252.85,130.283 252.85,133.994 252.599,133.994 252.599,134.994 253.85,134.994 
		253.85,131.283 256.638,131.283 256.638,130.178 255.638,130.178 	"/>
	<polygon fill="#D1D1D1" points="255.74,127.199 255.74,127.305 252.85,127.305 252.85,129.178 253.85,129.178 253.85,128.305 
		256.74,128.305 256.74,127.199 	"/>
	<polygon fill="#D1D1D1" points="261.845,130.283 259.057,130.283 259.057,133.994 258.806,133.994 258.806,134.994 
		260.057,134.994 260.057,131.283 262.845,131.283 262.845,130.178 261.845,130.178 	"/>
	<polygon fill="#D1D1D1" points="261.947,127.199 261.947,127.305 259.057,127.305 259.057,129.178 260.057,129.178 
		260.057,128.305 262.947,128.305 262.947,127.199 	"/>
	<path fill="#D1D1D1" d="M269.374,129.537c-0.185-0.193-0.392-0.326-0.617-0.41c0.076,0.196,0.117,0.407,0.117,0.635
		c0,0.487-0.167,0.899-0.5,1.235c-0.333,0.34-0.736,0.51-1.208,0.51c-0.211,0-0.408-0.04-0.593-0.11
		c0.083,0.218,0.209,0.418,0.385,0.6c0.34,0.34,0.743,0.51,1.208,0.51c0.473,0,0.875-0.17,1.208-0.51
		c0.333-0.336,0.5-0.749,0.5-1.235C269.874,130.286,269.707,129.877,269.374,129.537z"/>
	<path fill="#D1D1D1" d="M280.904,128.244c-0.131-0.124-0.274-0.22-0.414-0.324c0.455,0.644,0.687,1.372,0.687,2.187
		c0,0.554-0.106,1.066-0.314,1.537c-0.106,0.586-0.385,1.1-0.845,1.539c-0.598,0.565-1.332,0.848-2.202,0.848
		c-0.006,0-0.011-0.001-0.017-0.001c-0.32,0.065-0.65,0.107-0.999,0.107c-0.963,0-1.833-0.298-2.62-0.862
		c0.204,0.293,0.437,0.571,0.735,0.816c0.852,0.697,1.813,1.045,2.884,1.045c1.21,0,2.243-0.392,3.099-1.177
		c0.852-0.781,1.278-1.731,1.278-2.853C282.177,129.993,281.753,129.038,280.904,128.244z"/>
	<path fill="#D1D1D1" d="M275.184,132.568c-0.267-0.434-0.414-0.928-0.414-1.495c0-0.82,0.297-1.51,0.892-2.068
		c0.594-0.565,1.323-0.847,2.186-0.847c0.625,0,1.173,0.152,1.653,0.445c-0.13-0.212-0.279-0.415-0.472-0.598
		c-0.581-0.559-1.299-0.839-2.153-0.845c-0.78,0.162-1.478,0.513-2.083,1.073c-0.438,0.402-0.759,0.846-0.973,1.33
		c-0.028,0.165-0.048,0.333-0.048,0.51c0,0.861,0.308,1.569,0.924,2.124C274.851,132.339,275.015,132.462,275.184,132.568z"/>
	<polygon fill="#D1D1D1" points="290.667,127.199 290.667,134.469 284.619,128.536 284.619,133.994 284.367,133.994 
		284.367,134.994 285.619,134.994 285.619,129.536 291.667,135.469 291.667,127.199 	"/>
	<polygon fill="#D1D1D1" points="238.012,127.172 238.012,135.708 229.476,131.36 228.985,131.601 239.012,136.708 239.012,126.682 
			"/>
	<polygon fill="#D1D1D1" points="303.454,131.031 294.917,135.218 294.917,136.709 304.944,131.79 	"/>
	<linearGradient id="SVGID_34_" gradientUnits="userSpaceOnUse" x1="364.4155" y1="849.8721" x2="386.5435" y2="897.3258">
		<stop  offset="0" style="stop-color:#D1D1D1"/>
		<stop  offset="1" style="stop-color:#CCCCCC"/>
	</linearGradient>
	<path fill="url(#SVGID_34_)" d="M343.91,878.16h31v12h7v-12h3v12h7v-12h3v12h7v-12h1c3.866,0,7-3.134,7-7v-4c0-3.866-3.134-7-7-7
		h-59c-3.866,0-7,3.134-7,7v4C336.91,875.026,340.043,878.16,343.91,878.16z"/>
	<path fill="#C4C4C4" d="M336.91,871.16v-4c0-3.866,3.134-7,7-7h59c1.679,0,3.218,0.592,4.424,1.576
		c-1.284-1.571-3.236-2.576-5.424-2.576h-59c-3.866,0-7,3.134-7,7v4c0,2.188,1.004,4.14,2.577,5.424
		C337.501,874.378,336.91,872.839,336.91,871.16z"/>
	<rect x="393.91" y="878.16" fill="#C4C4C4" width="1" height="12"/>
	<rect x="373.91" y="878.16" fill="#C4C4C4" width="1" height="12"/>
	<rect x="383.91" y="878.16" fill="#C4C4C4" width="1" height="12"/>
	<path fill="#C2C2C2" d="M360.008,867.784c0.286,0,0.533,0.026,0.75,0.073c-0.07-0.706-0.639-1.073-1.75-1.073h-0.414v2.454h0.467
		c0.203,0,0.366-0.029,0.533-0.055v-1.399H360.008z"/>
	<path fill="#C2C2C2" d="M362.28,867.35c-0.156-0.145-0.331-0.255-0.515-0.347c0.148,0.3,0.229,0.632,0.229,1.003
		s-0.072,0.7-0.21,0.991c-0.004,0.827-0.577,1.241-1.723,1.241h-0.037c-0.264,0.054-0.542,0.09-0.851,0.09h-0.58v3.166h-0.251v1
		h1.251v-3.166h0.58c0.863,0,1.549-0.209,2.057-0.625c0.508-0.418,0.763-0.983,0.763-1.697
		C362.994,868.34,362.756,867.787,362.28,867.35z"/>
	<rect x="365.151" y="866.699" fill="#C2C2C2" width="1" height="2.049"/>
	<polygon fill="#C2C2C2" points="369.979,866.699 369.979,873.494 369.728,873.494 369.728,874.494 370.979,874.494 
		370.979,866.699 	"/>
	<polygon fill="#C2C2C2" points="368.728,869.854 365.151,869.854 365.151,873.494 364.899,873.494 364.899,874.494 
		366.151,874.494 366.151,870.854 368.728,870.854 	"/>
	<path fill="#C2C2C2" d="M374.845,872.067c-0.267-0.434-0.414-0.927-0.414-1.493c0-0.82,0.297-1.51,0.892-2.068
		c0.594-0.565,1.323-0.848,2.186-0.848c0.625,0,1.173,0.152,1.653,0.445c-0.13-0.212-0.279-0.414-0.472-0.598
		c-0.581-0.559-1.298-0.839-2.152-0.846c-0.78,0.162-1.478,0.514-2.084,1.074c-0.438,0.402-0.759,0.846-0.973,1.329
		c-0.028,0.165-0.048,0.333-0.048,0.511c0,0.86,0.308,1.568,0.924,2.123C374.512,871.84,374.675,871.962,374.845,872.067z"/>
	<path fill="#C2C2C2" d="M380.565,867.744c-0.131-0.124-0.274-0.22-0.414-0.324c0.455,0.644,0.687,1.371,0.687,2.187
		c0,0.554-0.106,1.065-0.314,1.537c-0.107,0.586-0.386,1.101-0.845,1.538c-0.598,0.566-1.332,0.848-2.202,0.848
		c-0.005,0-0.01-0.001-0.016-0.001c-0.32,0.065-0.651,0.107-1,0.107c-0.963,0-1.833-0.298-2.62-0.862
		c0.204,0.293,0.438,0.571,0.736,0.816c0.852,0.697,1.813,1.046,2.884,1.046c1.21,0,2.243-0.392,3.099-1.177
		c0.852-0.781,1.278-1.731,1.278-2.853C381.838,869.492,381.414,868.538,380.565,867.744z"/>
	<polygon fill="#C2C2C2" points="390.327,866.699 390.327,873.969 384.279,868.036 384.279,873.494 384.028,873.494 
		384.028,874.494 385.279,874.494 385.279,869.036 391.327,874.969 391.327,866.699 	"/>
	<polygon fill="#C2C2C2" points="397.506,873.494 393.93,873.494 393.93,874.494 398.506,874.494 398.506,873.389 397.506,873.389 	
		"/>
	<polygon fill="#C2C2C2" points="394.182,872.389 395.182,872.389 395.182,870.783 398.41,870.783 398.41,869.678 397.41,869.678 
		397.41,869.783 394.182,869.783 	"/>
	<polygon fill="#C2C2C2" points="397.506,866.699 397.506,866.805 394.182,866.805 394.182,868.678 395.182,868.678 
		395.182,867.805 398.506,867.805 398.506,866.699 	"/>
	<path fill="#C2C2C2" d="M403.44,867.42c-0.19-0.309-0.37-0.512-0.542-0.605c-0.145-0.087-0.332-0.129-0.543-0.146
		c-0.342,0.098-0.65,0.252-0.918,0.475c-0.185,0.152-0.322,0.324-0.436,0.506c0.017,0.365,0.312,0.663,0.896,0.889l0.106,0.041
		c0.012-0.257,0.118-0.475,0.335-0.647c0.229-0.185,0.518-0.278,0.865-0.278c0.283,0,0.514,0.055,0.693,0.162
		c0.172,0.094,0.352,0.297,0.542,0.605l1.015-0.564c-0.277-0.451-0.614-0.78-1.004-0.998L403.44,867.42z"/>
	<path fill="#C2C2C2" d="M400.884,869.314c0.235,0.526,0.738,0.955,1.541,1.273l0.801,0.313c0.054,0.022,0.09,0.047,0.141,0.069
		c-0.011-0.052-0.009-0.11-0.025-0.158c-0.045-0.127-0.115-0.242-0.211-0.349c-0.094-0.106-0.217-0.205-0.367-0.298
		c-0.15-0.092-0.33-0.181-0.537-0.265l-0.801-0.313C401.219,869.506,401.053,869.41,400.884,869.314z"/>
	<path fill="#C2C2C2" d="M405.203,870.793c-0.183-0.217-0.436-0.411-0.742-0.589c0.135,0.28,0.209,0.594,0.209,0.946
		c0,0.418-0.098,0.789-0.271,1.123c-0.011,0.354-0.132,0.653-0.378,0.889c-0.258,0.245-0.582,0.367-0.973,0.367
		c-0.07,0-0.134-0.011-0.199-0.018c-0.265,0.075-0.544,0.124-0.849,0.124c-0.507,0-0.948-0.105-1.331-0.306
		c0.143,0.271,0.324,0.507,0.548,0.701c0.47,0.403,1.063,0.604,1.783,0.604c0.759,0,1.395-0.235,1.907-0.708
		c0.508-0.468,0.762-1.061,0.762-1.777C405.669,871.614,405.514,871.162,405.203,870.793z"/>
	<path fill="#C7C7C7" d="M401.707,872.498c-0.032-0.129-0.065-0.256-0.086-0.422l-0.541,0.111
		C401.251,872.344,401.458,872.451,401.707,872.498z"/>
	<path fill="#C2C2C2" d="M349.66,864.711c-2.521,0.242-4.508,2.257-4.708,4.789c0.08,0.57,0.273,1.119,0.573,1.613l-0.352,0.214
		h0.487v1.286v1.048v1h1v-2.334h-0.487l0.352-0.214c-0.402-0.662-0.615-1.424-0.615-2.203c0-2.344,1.907-4.25,4.25-4.25
		c0.917,0,1.761,0.299,2.456,0.794C351.937,865.502,350.877,864.855,349.66,864.711z"/>
	<path fill="#C2C2C2" d="M353.322,865.747c0.672,0.883,1.087,1.971,1.087,3.163c0,0.202-0.017,0.403-0.04,0.604
		c0.013,0.133,0.04,0.261,0.04,0.396c0,0.759-0.202,1.504-0.585,2.153l0.447,0.264h-0.612v1.334v1h1v-2.105l0.026,0.016
		c0.474-0.804,0.724-1.724,0.724-2.661C355.41,868.208,354.582,866.707,353.322,865.747z"/>
	<path fill="#D1D1D1" d="M360.334,865.835c-0.354-0.091-0.879-0.136-1.574-0.136h-1.418v7.795h1.251v-3.166h0.58
		c0.863,0,1.549-0.209,2.057-0.625c0.508-0.418,0.763-0.983,0.763-1.697c0-0.666-0.238-1.219-0.714-1.656
		C361.008,866.098,360.692,865.926,360.334,865.835z M359.062,869.238h-0.467v-2.454h0.414c1.185,0,1.778,0.402,1.778,1.206
		C360.786,868.822,360.211,869.238,359.062,869.238z"/>
	<polygon fill="#D1D1D1" points="368.728,868.748 365.151,868.748 365.151,865.699 363.899,865.699 363.899,873.494 
		365.151,873.494 365.151,869.854 368.728,869.854 368.728,873.494 369.979,873.494 369.979,865.699 368.728,865.699 	"/>
	<path fill="#D1D1D1" d="M376.525,865.553c-1.196,0-2.22,0.394-3.072,1.182c-0.856,0.787-1.284,1.729-1.284,2.826
		c0,1.25,0.469,2.26,1.407,3.029c0.852,0.697,1.813,1.046,2.884,1.046c1.21,0,2.243-0.392,3.099-1.177
		c0.852-0.781,1.278-1.731,1.278-2.853c0-1.114-0.424-2.068-1.273-2.862C378.72,865.949,377.707,865.553,376.525,865.553z
		 M378.679,871.682c-0.598,0.566-1.332,0.848-2.202,0.848c-0.802,0-1.509-0.277-2.122-0.832c-0.616-0.555-0.924-1.263-0.924-2.123
		c0-0.82,0.297-1.51,0.892-2.068c0.594-0.565,1.323-0.848,2.186-0.848c0.867,0,1.593,0.282,2.181,0.848
		c0.591,0.562,0.886,1.258,0.886,2.088C379.576,870.414,379.277,871.111,378.679,871.682z"/>
	<polygon fill="#D1D1D1" points="389.076,871.116 383.028,865.168 383.028,873.494 384.279,873.494 384.279,868.036 
		390.327,873.969 390.327,865.699 389.076,865.699 	"/>
	<polygon fill="#D1D1D1" points="392.93,873.494 397.506,873.494 397.506,872.389 394.182,872.389 394.182,869.783 397.41,869.783 
		397.41,868.678 394.182,868.678 394.182,866.805 397.506,866.805 397.506,865.699 392.93,865.699 	"/>
	<path fill="#D1D1D1" d="M404.203,869.793c-0.312-0.369-0.804-0.682-1.477-0.938l-0.828-0.318c-0.602-0.232-0.902-0.539-0.902-0.919
		c0-0.276,0.115-0.505,0.344-0.688c0.229-0.185,0.518-0.278,0.865-0.278c0.283,0,0.514,0.055,0.693,0.162
		c0.172,0.094,0.352,0.297,0.542,0.605l1.015-0.564c-0.537-0.872-1.283-1.309-2.239-1.309c-0.709,0-1.302,0.199-1.778,0.596
		c-0.476,0.394-0.714,0.883-0.714,1.469c0,0.867,0.567,1.526,1.702,1.977l0.801,0.313c0.207,0.084,0.387,0.173,0.537,0.265
		c0.15,0.093,0.273,0.191,0.367,0.298c0.096,0.106,0.166,0.222,0.211,0.349c0.044,0.125,0.066,0.264,0.066,0.416
		c0,0.377-0.129,0.688-0.387,0.934c-0.258,0.245-0.582,0.367-0.973,0.367c-0.494,0-0.869-0.168-1.127-0.504
		c-0.144-0.176-0.244-0.492-0.301-0.949l-1.268,0.262c0.114,0.728,0.402,1.292,0.864,1.693c0.47,0.403,1.063,0.604,1.783,0.604
		c0.759,0,1.395-0.235,1.907-0.708c0.508-0.468,0.762-1.061,0.762-1.777C404.669,870.614,404.514,870.162,404.203,869.793z"/>
	<path fill="#D1D1D1" d="M349.16,863.66c-2.895,0-5.25,2.355-5.25,5.25c0,0.954,0.26,1.888,0.75,2.703v2.048h1v-2.334h-0.487
		l0.352-0.214c-0.402-0.662-0.615-1.424-0.615-2.203c0-2.344,1.907-4.25,4.25-4.25s4.25,1.906,4.25,4.25
		c0,0.759-0.202,1.504-0.585,2.153l0.447,0.264h-0.612v2.334h1v-2.105l0.026,0.016c0.474-0.804,0.724-1.724,0.724-2.661
		C354.41,866.016,352.055,863.66,349.16,863.66z"/>
	<path fill="#B8B8B8" d="M571.965,752.153l6.977-3.915l-2.512-4.647c-1.05-1.942-3.476-2.669-5.421-1.616
		c-1.943,1.05-2.667,3.478-1.616,5.421L571.965,752.153z"/>
	<path fill="#B8B8B8" d="M549.182,764.938l6.977-3.915l-2.396-4.433c-1.05-1.942-3.476-2.67-5.421-1.616
		c-1.943,1.05-2.667,3.478-1.616,5.421L549.182,764.938z"/>
	<path fill="#B8B8B8" d="M526.399,777.724l6.977-3.915l-2.279-4.218c-1.05-1.942-3.477-2.668-5.421-1.616
		c-1.943,1.05-2.667,3.478-1.616,5.421L526.399,777.724z"/>
	<path fill="#B8B8B8" d="M503.615,790.509l6.978-3.916l-2.163-4.002c-1.051-1.942-3.476-2.669-5.421-1.616
		c-1.943,1.05-2.667,3.478-1.616,5.421L503.615,790.509z"/>
	<path fill="#B8B8B8" d="M480.832,803.293l6.978-3.915l-2.047-3.787c-1.05-1.942-3.476-2.67-5.421-1.616
		c-1.943,1.05-2.667,3.478-1.616,5.421L480.832,803.293z"/>
	<path fill="#B8B8B8" d="M458.048,816.078l6.978-3.915l-1.931-3.572c-1.05-1.943-3.477-2.669-5.421-1.616
		c-1.943,1.05-2.667,3.478-1.616,5.421L458.048,816.078z"/>
	<path fill="#BFBFBF" d="M493.914,878.911c-1.749,0-3.352-0.955-4.183-2.492l-33.333-61.667c-0.604-1.116-0.735-2.4-0.373-3.616
		s1.177-2.218,2.293-2.821c0.692-0.375,1.473-0.573,2.256-0.573c1.749,0,3.351,0.955,4.182,2.493l33.333,61.667
		c0.604,1.116,0.735,2.4,0.373,3.616s-1.177,2.218-2.293,2.821C495.476,878.713,494.697,878.911,493.914,878.911L493.914,878.911z
		 M460.574,809.241c-0.534,0-1.068,0.136-1.542,0.393c-0.765,0.413-1.321,1.099-1.569,1.931s-0.157,1.711,0.256,2.475l33.333,61.667
		c0.568,1.052,1.665,1.705,2.862,1.705c0.534,0,1.067-0.136,1.541-0.392c0.765-0.413,1.321-1.099,1.569-1.931
		s0.157-1.711-0.256-2.475l-33.333-61.667C462.867,809.896,461.771,809.241,460.574,809.241L460.574,809.241z"/>
	<path fill="#BFBFBF" d="M516.581,865.911c-1.749,0-3.352-0.955-4.183-2.492l-33.333-61.667c-0.604-1.116-0.735-2.4-0.373-3.616
		s1.177-2.218,2.293-2.821c0.692-0.375,1.473-0.573,2.256-0.573c1.748,0,3.351,0.955,4.182,2.493l33.333,61.667
		c0.604,1.116,0.735,2.4,0.373,3.616s-1.177,2.218-2.293,2.821C518.143,865.713,517.364,865.911,516.581,865.911L516.581,865.911z
		 M483.241,796.241c-0.534,0-1.067,0.136-1.542,0.393c-0.765,0.413-1.321,1.099-1.569,1.931s-0.157,1.711,0.256,2.475l33.333,61.667
		c0.568,1.052,1.665,1.705,2.862,1.705c0.534,0,1.067-0.136,1.541-0.392c0.765-0.413,1.321-1.099,1.569-1.931
		s0.157-1.711-0.256-2.475l-33.333-61.667C485.534,796.896,484.437,796.241,483.241,796.241L483.241,796.241z"/>
	<path fill="#BFBFBF" d="M539.248,852.911c-1.749,0-3.352-0.955-4.183-2.492l-33.333-61.667c-0.604-1.116-0.735-2.4-0.373-3.616
		s1.177-2.218,2.293-2.821c0.692-0.374,1.473-0.572,2.256-0.572c1.747,0,3.35,0.954,4.181,2.492l33.334,61.667
		c0.604,1.116,0.735,2.4,0.373,3.616s-1.177,2.218-2.293,2.821C540.81,852.713,540.031,852.911,539.248,852.911L539.248,852.911z
		 M505.908,783.242c-0.534,0-1.068,0.136-1.542,0.392c-0.765,0.413-1.321,1.099-1.569,1.931s-0.157,1.711,0.256,2.475l33.333,61.667
		c0.568,1.052,1.665,1.705,2.862,1.705c0.534,0,1.067-0.136,1.541-0.392c0.765-0.413,1.321-1.099,1.569-1.931
		s0.157-1.711-0.256-2.475l-33.333-61.667C508.201,783.896,507.104,783.242,505.908,783.242L505.908,783.242z"/>
	<path fill="#BFBFBF" d="M561.915,839.911c-1.749,0-3.352-0.955-4.183-2.492l-33.333-61.667c-0.604-1.116-0.735-2.4-0.373-3.616
		s1.177-2.218,2.293-2.821c0.692-0.374,1.473-0.572,2.256-0.572c1.748,0,3.351,0.955,4.182,2.492l33.333,61.667
		c0.604,1.116,0.735,2.4,0.373,3.616s-1.177,2.218-2.293,2.821C563.477,839.713,562.698,839.911,561.915,839.911L561.915,839.911z
		 M528.575,770.242c-0.535,0-1.068,0.136-1.543,0.393c-0.764,0.412-1.32,1.098-1.568,1.93s-0.157,1.711,0.256,2.475l33.333,61.667
		c0.568,1.052,1.665,1.705,2.862,1.705c0.534,0,1.067-0.136,1.541-0.392c0.765-0.413,1.321-1.099,1.569-1.931
		s0.157-1.711-0.256-2.475l-33.333-61.667C530.868,770.896,529.771,770.242,528.575,770.242L528.575,770.242z"/>
	<path fill="#BFBFBF" d="M584.582,826.911c-1.749,0-3.352-0.955-4.183-2.492l-33.333-61.667c-0.604-1.116-0.735-2.4-0.373-3.616
		s1.177-2.218,2.293-2.821c0.692-0.375,1.473-0.573,2.256-0.573c1.748,0,3.351,0.955,4.182,2.493l33.333,61.667
		c0.604,1.116,0.735,2.4,0.373,3.616s-1.177,2.218-2.293,2.821C586.144,826.713,585.365,826.911,584.582,826.911L584.582,826.911z
		 M551.242,757.241c-0.534,0-1.067,0.136-1.542,0.393c-0.765,0.413-1.321,1.099-1.569,1.931s-0.157,1.711,0.256,2.475l33.333,61.667
		c0.568,1.052,1.665,1.705,2.862,1.705c0.534,0,1.067-0.136,1.541-0.392c0.765-0.413,1.321-1.099,1.569-1.931
		s0.157-1.711-0.256-2.475l-33.333-61.667C553.535,757.896,552.438,757.241,551.242,757.241L551.242,757.241z"/>
	<path fill="#BFBFBF" d="M607.249,813.911c-1.749,0-3.352-0.955-4.183-2.492l-33.333-61.667c-0.604-1.116-0.735-2.4-0.373-3.616
		s1.177-2.218,2.293-2.821c0.692-0.374,1.473-0.572,2.256-0.572c1.748,0,3.351,0.955,4.182,2.492l33.333,61.667
		c0.604,1.116,0.735,2.4,0.373,3.616s-1.177,2.218-2.293,2.821C608.811,813.713,608.032,813.911,607.249,813.911L607.249,813.911z
		 M573.909,744.242c-0.534,0-1.068,0.136-1.542,0.392c-0.765,0.413-1.321,1.099-1.569,1.931s-0.157,1.711,0.256,2.475l33.333,61.667
		c0.568,1.052,1.665,1.705,2.862,1.705c0.534,0,1.067-0.136,1.541-0.392c0.765-0.413,1.321-1.099,1.569-1.931
		s0.157-1.711-0.256-2.475l-33.333-61.667C576.202,744.896,575.105,744.242,573.909,744.242L573.909,744.242z"/>
	<path fill="#D4D4D4" d="M495.495,868.252l-6.977,3.915l2.512,4.647c1.05,1.942,3.476,2.669,5.421,1.616
		c1.943-1.05,2.667-3.478,1.616-5.421L495.495,868.252z"/>
	<path fill="#D4D4D4" d="M518.278,855.467l-6.977,3.915l2.396,4.433c1.05,1.942,3.476,2.67,5.421,1.616
		c1.943-1.05,2.667-3.478,1.616-5.421L518.278,855.467z"/>
	<path fill="#D4D4D4" d="M541.061,842.682l-6.977,3.915l2.279,4.218c1.05,1.942,3.477,2.668,5.421,1.616
		c1.943-1.05,2.667-3.478,1.616-5.421L541.061,842.682z"/>
	<path fill="#D4D4D4" d="M563.845,829.896l-6.978,3.916l2.163,4.002c1.051,1.942,3.476,2.669,5.421,1.616
		c1.943-1.05,2.667-3.478,1.616-5.421L563.845,829.896z"/>
	<path fill="#D4D4D4" d="M586.628,817.112l-6.978,3.915l2.047,3.787c1.05,1.942,3.476,2.67,5.421,1.616
		c1.943-1.05,2.667-3.478,1.616-5.421L586.628,817.112z"/>
	<path fill="#D4D4D4" d="M609.412,804.327l-6.978,3.915l1.931,3.572c1.05,1.943,3.477,2.669,5.421,1.616
		c1.943-1.05,2.667-3.478,1.616-5.421L609.412,804.327z"/>
	<linearGradient id="SVGID_35_" gradientUnits="userSpaceOnUse" x1="460.7661" y1="807.9912" x2="493.7209" y2="878.6628">
		<stop  offset="0" style="stop-color:#CFCFCF"/>
		<stop  offset="0.6006" style="stop-color:#C6C6C6"/>
		<stop  offset="1" style="stop-color:#BDBDBD"/>
	</linearGradient>
	<path fill="url(#SVGID_35_)" d="M493.914,878.161c-1.423,0-2.799-0.76-3.522-2.099l-33.333-61.667
		c-1.051-1.943-0.327-4.371,1.616-5.421c1.944-1.053,4.371-0.327,5.421,1.616l33.333,61.667c1.051,1.943,0.327,4.371-1.616,5.421
		C495.208,878.006,494.555,878.161,493.914,878.161L493.914,878.161z"/>
	<linearGradient id="SVGID_36_" gradientUnits="userSpaceOnUse" x1="483.4331" y1="794.9912" x2="516.3878" y2="865.6628">
		<stop  offset="0" style="stop-color:#CFCFCF"/>
		<stop  offset="0.6006" style="stop-color:#C6C6C6"/>
		<stop  offset="1" style="stop-color:#BDBDBD"/>
	</linearGradient>
	<path fill="url(#SVGID_36_)" d="M516.581,865.161c-1.423,0-2.799-0.76-3.522-2.099l-33.333-61.667
		c-1.051-1.943-0.327-4.371,1.616-5.421c1.945-1.054,4.371-0.326,5.421,1.616l33.333,61.667c1.051,1.943,0.327,4.371-1.616,5.421
		C517.875,865.006,517.222,865.161,516.581,865.161L516.581,865.161z"/>
	<linearGradient id="SVGID_37_" gradientUnits="userSpaceOnUse" x1="506.0991" y1="781.9912" x2="539.0535" y2="852.662">
		<stop  offset="0" style="stop-color:#CFCFCF"/>
		<stop  offset="0.6006" style="stop-color:#C6C6C6"/>
		<stop  offset="1" style="stop-color:#BDBDBD"/>
	</linearGradient>
	<path fill="url(#SVGID_37_)" d="M539.248,852.161c-1.423,0-2.799-0.76-3.522-2.099l-33.333-61.667
		c-1.051-1.943-0.327-4.371,1.616-5.421c1.945-1.053,4.37-0.326,5.421,1.616l33.333,61.667c1.051,1.943,0.327,4.371-1.616,5.421
		C540.542,852.006,539.889,852.161,539.248,852.161L539.248,852.161z"/>
	<linearGradient id="SVGID_38_" gradientUnits="userSpaceOnUse" x1="528.7671" y1="768.9912" x2="561.7214" y2="839.662">
		<stop  offset="0" style="stop-color:#CFCFCF"/>
		<stop  offset="0.6006" style="stop-color:#C6C6C6"/>
		<stop  offset="1" style="stop-color:#BDBDBD"/>
	</linearGradient>
	<path fill="url(#SVGID_38_)" d="M561.915,839.161c-1.423,0-2.799-0.76-3.522-2.099l-33.333-61.667
		c-1.051-1.943-0.327-4.371,1.616-5.421c1.944-1.052,4.371-0.326,5.421,1.616l33.333,61.667c1.051,1.943,0.327,4.371-1.616,5.421
		C563.208,839.006,562.556,839.161,561.915,839.161L561.915,839.161z"/>
	<linearGradient id="SVGID_39_" gradientUnits="userSpaceOnUse" x1="551.4341" y1="755.9922" x2="584.388" y2="826.662">
		<stop  offset="0" style="stop-color:#CFCFCF"/>
		<stop  offset="0.6006" style="stop-color:#C6C6C6"/>
		<stop  offset="1" style="stop-color:#BDBDBD"/>
	</linearGradient>
	<path fill="url(#SVGID_39_)" d="M584.582,826.161c-1.423,0-2.799-0.76-3.522-2.099l-33.333-61.667
		c-1.051-1.943-0.327-4.371,1.616-5.421c1.945-1.054,4.371-0.326,5.421,1.616l33.333,61.667c1.051,1.943,0.327,4.371-1.616,5.421
		C585.875,826.006,585.223,826.161,584.582,826.161L584.582,826.161z"/>
	<linearGradient id="SVGID_40_" gradientUnits="userSpaceOnUse" x1="574.1011" y1="742.9922" x2="607.055" y2="813.662">
		<stop  offset="0" style="stop-color:#CFCFCF"/>
		<stop  offset="0.6006" style="stop-color:#C6C6C6"/>
		<stop  offset="1" style="stop-color:#BDBDBD"/>
	</linearGradient>
	<path fill="url(#SVGID_40_)" d="M607.249,813.161c-1.423,0-2.799-0.76-3.522-2.099l-33.333-61.667
		c-1.051-1.943-0.327-4.371,1.616-5.421c1.945-1.053,4.371-0.326,5.421,1.616l33.333,61.667c1.051,1.943,0.327,4.371-1.616,5.421
		C608.542,813.006,607.89,813.161,607.249,813.161L607.249,813.161z"/>
	<path fill="#5E5E5E" d="M479.366,798.566c-0.226,0.921-0.135,1.92,0.353,2.82l26.889,50.324l0.895-0.512L479.366,798.566z"/>
	<path fill="#5E5E5E" d="M502.027,785.346c-0.226,0.921-0.135,1.92,0.353,2.82l26.995,50.524l0.896-0.512L502.027,785.346z"/>
	<path fill="#5E5E5E" d="M524.688,772.125c-0.226,0.921-0.135,1.92,0.353,2.82l27.103,50.724l0.895-0.512L524.688,772.125z"/>
	<path fill="#5E5E5E" d="M547.349,758.904c-0.226,0.921-0.135,1.92,0.353,2.82l27.209,50.924l0.895-0.512L547.349,758.904z"/>
	<path fill="#5E5E5E" d="M570.01,745.684c-0.226,0.921-0.135,1.92,0.353,2.82l27.316,51.124l0.895-0.512L570.01,745.684z"/>
	<linearGradient id="SVGID_41_" gradientUnits="userSpaceOnUse" x1="239.6533" y1="592.2119" x2="286.6263" y2="692.9457">
		<stop  offset="0" style="stop-color:#454545"/>
		<stop  offset="1" style="stop-color:#333333"/>
	</linearGradient>
	<path fill="url(#SVGID_41_)" d="M275.927,697.426h-24.565c-2.71,0-4.915-2.205-4.915-4.916v-33.369h-32.568
		c-2.71,0-4.916-2.206-4.916-4.917V629.66c0-2.711,2.205-4.916,4.916-4.916h32.568v-32.568c0-2.711,2.205-4.916,4.915-4.916h24.565
		c2.71,0,4.916,2.205,4.916,4.916v32.568h30.965c2.71,0,4.916,2.205,4.916,4.916v24.563c0,2.711-2.205,4.917-4.916,4.917h-30.965
		v33.369C280.843,695.221,278.638,697.426,275.927,697.426L275.927,697.426z M213.878,625.744c-2.159,0-3.916,1.757-3.916,3.916
		v24.563c0,2.16,1.756,3.917,3.916,3.917h33.568v34.369c0,2.159,1.756,3.916,3.915,3.916h24.565c2.159,0,3.916-1.757,3.916-3.916
		v-34.369h31.965c2.159,0,3.916-1.757,3.916-3.917V629.66c0-2.159-1.756-3.916-3.916-3.916h-31.965v-33.568
		c0-2.159-1.756-3.916-3.916-3.916h-24.565c-2.159,0-3.915,1.757-3.915,3.916v33.568H213.878L213.878,625.744z"/>
	<linearGradient id="SVGID_42_" gradientUnits="userSpaceOnUse" x1="198.8101" y1="600.4199" x2="248.2364" y2="706.4151">
		<stop  offset="0" style="stop-color:#0D0D0D"/>
		<stop  offset="1" style="stop-color:#212121"/>
	</linearGradient>
	<path fill="url(#SVGID_42_)" d="M219.127,629.792h-1.442c-1.657,0-3,1.343-3,3v19.305c0,1.657,1.343,3,3,3h1.442
		c1.657,0,3-1.343,3-3v-19.305C222.127,631.135,220.784,629.792,219.127,629.792z"/>
	<linearGradient id="SVGID_43_" gradientUnits="userSpaceOnUse" x1="209.2202" y1="597.7393" x2="258.6407" y2="703.7217">
		<stop  offset="0" style="stop-color:#0D0D0D"/>
		<stop  offset="1" style="stop-color:#212121"/>
	</linearGradient>
	<path fill="url(#SVGID_43_)" d="M230.788,629.792h-1.442c-1.657,0-3,1.343-3,3v19.305c0,1.657,1.343,3,3,3h1.442
		c1.657,0,3-1.343,3-3v-19.305C233.788,631.135,232.444,629.792,230.788,629.792z"/>
	<linearGradient id="SVGID_44_" gradientUnits="userSpaceOnUse" x1="219.6245" y1="595.0449" x2="269.0509" y2="701.0401">
		<stop  offset="0" style="stop-color:#0D0D0D"/>
		<stop  offset="1" style="stop-color:#212121"/>
	</linearGradient>
	<path fill="url(#SVGID_44_)" d="M242.448,629.792h-1.442c-1.657,0-3,1.343-3,3v19.305c0,1.657,1.343,3,3,3h1.442
		c1.657,0,3-1.343,3-3v-19.305C245.448,631.135,244.105,629.792,242.448,629.792z"/>
	<linearGradient id="SVGID_45_" gradientUnits="userSpaceOnUse" x1="257.2593" y1="585.3223" x2="306.6856" y2="691.3174">
		<stop  offset="0" style="stop-color:#0D0D0D"/>
		<stop  offset="1" style="stop-color:#212121"/>
	</linearGradient>
	<path fill="url(#SVGID_45_)" d="M284.617,629.792h-1.442c-1.657,0-3,1.343-3,3v19.305c0,1.657,1.343,3,3,3h1.442
		c1.657,0,3-1.343,3-3v-19.305C287.617,631.135,286.273,629.792,284.617,629.792z"/>
	<linearGradient id="SVGID_46_" gradientUnits="userSpaceOnUse" x1="267.667" y1="582.6357" x2="317.0934" y2="688.6311">
		<stop  offset="0" style="stop-color:#0D0D0D"/>
		<stop  offset="1" style="stop-color:#212121"/>
	</linearGradient>
	<path fill="url(#SVGID_46_)" d="M296.277,629.792h-1.442c-1.657,0-3,1.343-3,3v19.305c0,1.657,1.343,3,3,3h1.442
		c1.657,0,3-1.343,3-3v-19.305C299.277,631.135,297.934,629.792,296.277,629.792z"/>
	<linearGradient id="SVGID_47_" gradientUnits="userSpaceOnUse" x1="278.0728" y1="579.9434" x2="327.5011" y2="685.9429">
		<stop  offset="0" style="stop-color:#0D0D0D"/>
		<stop  offset="1" style="stop-color:#212121"/>
	</linearGradient>
	<path fill="url(#SVGID_47_)" d="M307.938,629.792h-1.442c-1.657,0-3,1.343-3,3v19.305c0,1.657,1.343,3,3,3h1.442
		c1.657,0,3-1.343,3-3v-19.305C310.938,631.135,309.595,629.792,307.938,629.792z"/>
	<linearGradient id="SVGID_48_" gradientUnits="userSpaceOnUse" x1="209.9351" y1="571.3115" x2="273.4436" y2="707.5061">
		<stop  offset="0" style="stop-color:#0D0D0D"/>
		<stop  offset="1" style="stop-color:#212121"/>
	</linearGradient>
	<path fill="url(#SVGID_48_)" d="M273.463,683.129h-19.305c-1.657,0-3,1.343-3,3v1.441c0,1.657,1.343,3,3,3h19.305
		c1.657,0,3-1.343,3-3v-1.441C276.463,684.472,275.121,683.129,273.463,683.129z"/>
	<linearGradient id="SVGID_49_" gradientUnits="userSpaceOnUse" x1="215.8335" y1="572.3018" x2="279.3281" y2="708.4664">
		<stop  offset="0" style="stop-color:#0D0D0D"/>
		<stop  offset="1" style="stop-color:#212121"/>
	</linearGradient>
	<path fill="url(#SVGID_49_)" d="M273.463,671.468h-19.305c-1.657,0-3,1.343-3,3v1.442c0,1.656,1.343,3,3,3h19.305
		c1.657,0,3-1.344,3-3v-1.442C276.463,672.811,275.121,671.468,273.463,671.468z"/>
	<linearGradient id="SVGID_50_" gradientUnits="userSpaceOnUse" x1="221.7163" y1="573.2568" x2="285.219" y2="709.4387">
		<stop  offset="0" style="stop-color:#0D0D0D"/>
		<stop  offset="1" style="stop-color:#212121"/>
	</linearGradient>
	<path fill="url(#SVGID_50_)" d="M273.463,659.807h-19.305c-1.657,0-3,1.344-3,3v1.443c0,1.656,1.343,3,3,3h19.305
		c1.657,0,3-1.344,3-3v-1.443C276.463,661.15,275.121,659.807,273.463,659.807z"/>
	<linearGradient id="SVGID_51_" gradientUnits="userSpaceOnUse" x1="243.0103" y1="576.7529" x2="306.5129" y2="712.9348">
		<stop  offset="0" style="stop-color:#0D0D0D"/>
		<stop  offset="1" style="stop-color:#212121"/>
	</linearGradient>
	<path fill="url(#SVGID_51_)" d="M273.463,617.639h-19.305c-1.657,0-3,1.344-3,3v1.442c0,1.657,1.343,3,3,3h19.305
		c1.657,0,3-1.343,3-3v-1.442C276.463,618.982,275.121,617.639,273.463,617.639z"/>
	<linearGradient id="SVGID_52_" gradientUnits="userSpaceOnUse" x1="248.8989" y1="577.7197" x2="312.4026" y2="713.9037">
		<stop  offset="0" style="stop-color:#0D0D0D"/>
		<stop  offset="1" style="stop-color:#212121"/>
	</linearGradient>
	<path fill="url(#SVGID_52_)" d="M273.463,605.979h-19.305c-1.657,0-3,1.343-3,3v1.441c0,1.657,1.343,3,3,3h19.305
		c1.657,0,3-1.343,3-3v-1.441C276.463,607.321,275.121,605.979,273.463,605.979z"/>
	<linearGradient id="SVGID_53_" gradientUnits="userSpaceOnUse" x1="254.7876" y1="578.6875" x2="318.2912" y2="714.8715">
		<stop  offset="0" style="stop-color:#0D0D0D"/>
		<stop  offset="1" style="stop-color:#212121"/>
	</linearGradient>
	<path fill="url(#SVGID_53_)" d="M273.463,594.317h-19.305c-1.657,0-3,1.343-3,3v1.442c0,1.656,1.343,3,3,3h19.305
		c1.657,0,3-1.344,3-3v-1.442C276.463,595.66,275.121,594.317,273.463,594.317z"/>
</g>
</svg>
