<?xml version="1.0" encoding="utf-8"?>
<!-- Generator: Adobe Illustrator 18.0.0, SVG Export Plug-In . SVG Version: 6.00 Build 0)  -->
<!DOCTYPE svg PUBLIC "-//W3C//DTD SVG 1.1//EN" "http://www.w3.org/Graphics/SVG/1.1/DTD/svg11.dtd">
<svg version="1.1"
	 id="svg2" xmlns:svg="http://www.w3.org/2000/svg" xmlns:rdf="http://www.w3.org/1999/02/22-rdf-syntax-ns#" xmlns:cc="http://creativecommons.org/ns#" xmlns:dc="http://purl.org/dc/elements/1.1/"
	 xmlns="http://www.w3.org/2000/svg" xmlns:xlink="http://www.w3.org/1999/xlink" x="0px" y="0px" viewBox="0.9 -0.2 1126.5 197.4"
	 enable-background="new 0.9 -0.2 1126.5 197.4" xml:space="preserve">
<path fill="#393C9F" d="M215.7,100.6L232.1,64l7.2,36.6H215.7 M447.8,4.9l-44.5,103.5L383.6,4.9h-38.3l-54.5,152.5L265.3,4.9h-47.8
	l-72.4,164.4l10.8-68.7H84l-5.7,35.4h30.2l-3.5,18.9c-17.2,7.1-46.4,4.4-58.9-18c-7.9-14.2-15.3-45.8,18-74.9
	c27.2-23.7,74.2-28,101.3-15.6c0,0,3.4-19.9,6-38.3c-52.1-18-92.6-3-119.7,13.8C14.6,44.6-3.2,79.5,1.7,126.9
	c5.5,54.9,76.6,89.6,136.9,54.6c0.7-0.3,1-0.6,1.6-0.7l-5.8,12.8h40.5l25.5-56.5h44.8l9.8,56.5h66l33.6-105.5l27.6,105.5H408
	l44.3-116.8l17.5,117.5h38.7L494.4,4.9H447.8z"/>
<polyline fill="#393C9F" points="508.5,194.4 616.6,194.4 623.1,154 555.5,154 560.8,120.3 619.7,120.3 626.1,79.8 566.7,79.8 
	571.8,46.3 639.5,46.3 645.9,5.8 538.6,5.8 508.5,194.4 "/>
<polyline fill="#393C9F" points="1043.8,65.1 1019.6,3.6 975.2,3.6 1021,103.1 1006.8,192.2 1045.7,192.2 1057.5,113.4 1127.4,3.6 
	1082,3.6 1043.8,65.1 "/>
<path fill="#393C9F" d="M952.4,117.5c-10.4,31.2-35.6,49.4-56.1,40.1c-20.4-9.1-28.7-42-18.2-73.4c10.5-31.5,35.6-49.3,56-40.2
	C954.6,53.2,962.9,86.1,952.4,117.5 M937.3,6.6c-43-9.9-87.7,24.3-99.8,76.4c-11.9,52.2,13.1,102.5,56,112.5
	c43,9.8,87.6-24.4,99.8-76.5C1005.2,66.8,980.1,16.5,937.3,6.6z"/>
<path fill="#393C9F" d="M761.3,82c-21.3,0-26.8,0-26.8,0l5.9-35c0,0,0.8,0,25.2,0C793,47,787.4,82,761.3,82 M756.6,158.2
	c-21.4,0-34.2,0-34.2,0l6-37.6c0,0,8.1,0,32.4,0C791.7,120.6,790.8,158.2,756.6,158.2z M779.3,7.1c-20.9-0.3-72.6,0-72.6,0h0.4
	l-30,187.3c0,0,62.1,0,87.3,0c36,0,88.5-52.9,40.6-96.1C854,47.4,805.4,7.7,779.3,7.1z"/>
</svg>
