<?xml version="1.0" encoding="iso-8859-1"?>
<!-- Generator: Adobe Illustrator 17.1.0, SVG Export Plug-In . SVG Version: 6.00 Build 0)  -->
<!DOCTYPE svg PUBLIC "-//W3C//DTD SVG 1.1//EN" "http://www.w3.org/Graphics/SVG/1.1/DTD/svg11.dtd">
<svg version="1.1" id="Capa_1" xmlns="http://www.w3.org/2000/svg" xmlns:xlink="http://www.w3.org/1999/xlink" x="0px" y="0px"
	 viewBox="0 0 247.611 247.611" style="enable-background:new 0 0 247.611 247.611;" xml:space="preserve">
<g>
	<path style="fill:#000002;" d="M215.367,160.192h-67.969V91.158c15.359-8.511,25.036-24.702,25.036-42.531
		C172.435,21.814,150.62,0,123.806,0C96.993,0,75.18,21.814,75.18,48.627c0,17.83,9.676,34.02,25.033,42.531v69.035H32.244
		c-6.893,0-12.5,5.607-12.5,12.5v62.419c0,6.893,5.607,12.5,12.5,12.5h183.123c6.893,0,12.5-5.607,12.5-12.5v-62.419
		C227.867,165.8,222.26,160.192,215.367,160.192z M90.18,48.627C90.18,30.085,105.265,15,123.806,15
		c18.543,0,33.629,15.085,33.629,33.627c0,13.511-8.036,25.662-20.474,30.957l-4.563,1.942v78.666h-17.186V81.526l-4.563-1.942
		C98.215,74.29,90.18,62.139,90.18,48.627z M212.867,232.611H34.744v-57.419h178.123V232.611z"/>
	<path style="fill:#000002;" d="M66.585,223.149c10.398,0,18.858-8.459,18.858-18.857c0-10.398-8.46-18.857-18.858-18.857
		c-10.399,0-18.857,8.46-18.857,18.857C47.728,214.69,56.186,223.149,66.585,223.149z M66.585,195.435
		c4.885,0,8.858,3.974,8.858,8.857c0,4.884-3.974,8.857-8.858,8.857c-4.884,0-8.857-3.974-8.857-8.857
		C57.728,199.408,61.701,195.435,66.585,195.435z"/>
</g>
<g>
</g>
<g>
</g>
<g>
</g>
<g>
</g>
<g>
</g>
<g>
</g>
<g>
</g>
<g>
</g>
<g>
</g>
<g>
</g>
<g>
</g>
<g>
</g>
<g>
</g>
<g>
</g>
<g>
</g>
</svg>
