<?xml version="1.0" encoding="iso-8859-1"?>
<!-- Generator: Adobe Illustrator 18.0.0, SVG Export Plug-In . SVG Version: 6.00 Build 0)  -->
<!DOCTYPE svg PUBLIC "-//W3C//DTD SVG 1.1//EN" "http://www.w3.org/Graphics/SVG/1.1/DTD/svg11.dtd">
<svg version="1.1" id="Capa_1" xmlns="http://www.w3.org/2000/svg" xmlns:xlink="http://www.w3.org/1999/xlink" x="0px" y="0px"
	 viewBox="0 0 495.384 495.384" style="enable-background:new 0 0 495.384 495.384;" xml:space="preserve">
<path d="M456.395,419.938c-10.46,0-19.659,5.36-25.037,13.473H316.87c25.799-30.459,41.456-69.779,41.456-112.739
	c0-33.546-9.667-64.791-26.122-91.43h59.983c23.398,0,42.441-19.043,42.441-42.441V55.097c8.112-5.384,13.472-14.58,13.472-25.044
	C448.101,13.455,434.646,0,418.05,0c-16.602,0-30.058,13.455-30.058,30.053c0,10.464,5.36,19.66,13.475,25.044v131.704
	c0,5.114-4.16,9.278-9.279,9.278h-86.312c-31.527-30.955-74.668-50.119-122.244-50.119c-27.045,0-52.583,6.355-75.464,17.385
	v-38.827c0-5.114,4.159-9.278,9.278-9.278h111.248c5.267,8.665,14.722,14.509,25.605,14.509c16.597,0,30.056-13.456,30.056-30.053
	c0-16.601-13.459-30.056-30.056-30.056c-9.989,0-18.785,4.93-24.257,12.437H117.446c-23.397,0-42.441,19.043-42.441,42.441v59.562
	c-40.194,32.039-66.069,81.31-66.069,136.593c0,96.344,78.358,174.712,174.696,174.712c35.381,0,68.303-10.647,95.847-28.81h151.879
	c5.378,8.113,14.577,13.473,25.037,13.473c16.6,0,30.054-13.455,30.054-30.052C486.448,433.394,472.994,419.938,456.395,419.938z
	 M129.171,186.02c-10.282,13.66-18.897,31.127-25.229,51.441c-19.919,5.489-37.474,12.972-51.9,22.022
	C67.505,226.27,95.102,199.874,129.171,186.02z M39.718,301.652c9.943-15.222,30.621-28.398,57.553-37.546
	c-2.852,14.52-4.616,30.015-5.246,46.224H38.843C39.071,307.425,39.346,304.518,39.718,301.652z M40.3,343.447
	c-0.518-3.183-1.02-6.338-1.294-9.586h53.019c0.63,16.186,2.395,31.706,5.246,46.242C70.858,371.121,50.454,358.255,40.3,343.447z
	 M53.968,385.898c14.057,8.512,30.931,15.636,49.975,20.851c5.731,18.313,13.263,34.321,22.199,47.323
	C94.808,440.519,69.32,416.221,53.968,385.898z M171.876,464.309c-15.438-6.266-30.399-24.479-41.07-51.569
	c13.055,2.193,26.85,3.498,41.07,3.976V464.309z M171.876,393.235c-17.248-0.658-33.829-2.794-49.135-6.097
	c-3.918-15.894-6.478-33.773-7.207-53.277h56.342V393.235z M171.876,310.33h-56.342c0.729-19.496,3.289-37.348,7.207-53.267
	c15.306-3.312,31.887-5.407,49.135-6.096V310.33z M171.876,227.478c-14.221,0.487-28.016,1.813-41.07,3.99
	c10.671-27.082,25.633-45.317,41.07-51.526V227.478z M326.974,343.447c-10.15,14.808-30.557,27.66-56.95,36.632
	c2.851-14.512,4.631-30.032,5.248-46.218h53.002C327.996,337.109,327.492,340.265,326.974,343.447z M275.271,310.33
	c-0.617-16.209-2.397-31.704-5.248-46.224c26.911,9.183,47.577,22.324,57.552,37.546c0.388,2.865,0.615,5.772,0.857,8.678H275.271z
	 M293.682,226.143l2.464,3.1c7.495,9.238,14.008,19.326,19.091,30.241c-14.413-9.051-31.968-16.533-51.882-22.022
	c-6.367-20.314-14.95-37.78-25.252-51.441C259.725,194.815,278.72,208.699,293.682,226.143z M195.419,179.941
	c15.463,6.209,30.395,24.444,41.068,51.526c-13.039-2.178-26.848-3.503-41.068-3.99V179.941z M195.419,250.968
	c17.264,0.689,33.811,2.784,49.131,6.096c3.92,15.919,6.461,33.77,7.19,53.267h-56.321V250.968z M195.419,333.861h56.321
	c-0.73,19.504-3.271,37.383-7.19,53.277c-15.32,3.303-31.867,5.439-49.131,6.097V333.861z M195.419,464.309v-47.594
	c14.221-0.478,28.029-1.782,41.068-3.976C225.813,439.83,210.882,458.043,195.419,464.309z M263.355,406.749
	c19.041-5.232,35.898-12.339,49.938-20.851c-15.306,30.322-40.825,54.62-72.159,68.174
	C250.087,441.07,257.616,425.063,263.355,406.749z"/>
<g>
</g>
<g>
</g>
<g>
</g>
<g>
</g>
<g>
</g>
<g>
</g>
<g>
</g>
<g>
</g>
<g>
</g>
<g>
</g>
<g>
</g>
<g>
</g>
<g>
</g>
<g>
</g>
<g>
</g>
</svg>
